<svg width="500" height="500" viewBox="0 0 500 500" fill="none" xmlns="http://www.w3.org/2000/svg">
<path d="M238.401 445.047H45.3017C42.1547 445.047 39.5938 442.487 39.5938 439.339V60.6599C39.5938 57.5129 42.1547 54.9519 45.3017 54.9519H238.401C241.547 54.9519 244.108 57.5129 244.108 60.6599V439.339C244.108 442.487 241.547 445.047 238.401 445.047ZM45.3017 55.2029C42.2917 55.2029 39.8438 57.6509 39.8438 60.6609V439.34C39.8438 442.35 42.2917 444.798 45.3017 444.798H238.401C241.41 444.798 243.858 442.35 243.858 439.34V60.6599C243.858 57.6509 241.41 55.2019 238.401 55.2019L45.3017 55.2029Z" fill="#EBEBEB"/>
<path d="M454.698 445.047H261.599C258.453 445.047 255.892 442.487 255.892 439.339V60.6599C255.892 57.5129 258.453 54.9519 261.599 54.9519H454.698C457.846 54.9519 460.406 57.5129 460.406 60.6599V439.339C460.406 442.487 457.845 445.047 454.698 445.047ZM261.599 55.2029C258.59 55.2029 256.142 57.6509 256.142 60.6609V439.34C256.142 442.35 258.59 444.798 261.599 444.798H454.698C457.708 444.798 460.156 442.35 460.156 439.34V60.6599C460.156 57.6509 457.708 55.2019 454.698 55.2019L261.599 55.2029Z" fill="#EBEBEB"/>
<path d="M113.053 168.247L114.67 171.523L118.285 172.049L115.669 174.599L116.287 178.2L113.053 176.5L109.819 178.2L110.437 174.599L107.82 172.049L111.436 171.523L113.053 168.247Z" fill="#EBEBEB"/>
<path d="M436.705 322.483L438.322 325.759L441.937 326.285L439.321 328.835L439.939 332.436L436.705 330.736L433.471 332.436L434.088 328.835L431.472 326.285L435.088 325.759L436.705 322.483Z" fill="#F5F5F5"/>
<path d="M372.598 417.566L374.215 420.842L377.831 421.367L375.214 423.918L375.832 427.519L372.598 425.819L369.364 427.519L369.982 423.918L367.365 421.367L370.981 420.842L372.598 417.566Z" fill="#F5F5F5"/>
<path d="M225.945 110.154L226.545 111.37L227.887 111.565C228.222 111.614 228.356 112.025 228.113 112.262L227.142 113.209L227.371 114.546C227.428 114.88 227.078 115.134 226.779 114.977L225.578 114.346L224.377 114.977C224.077 115.135 223.727 114.88 223.785 114.546L224.014 113.209L223.043 112.262C222.801 112.026 222.934 111.614 223.269 111.565L224.611 111.37L225.211 110.154C225.362 109.85 225.795 109.85 225.945 110.154Z" fill="#EBEBEB"/>
<path d="M60.7767 402.008L61.3767 403.224L62.7187 403.419C63.0537 403.468 63.1877 403.879 62.9447 404.116L61.9737 405.063L62.2027 406.4C62.2597 406.734 61.9097 406.988 61.6107 406.831L60.4097 406.2L59.2087 406.831C58.9087 406.988 58.5587 406.734 58.6167 406.4L58.8457 405.063L57.8747 404.116C57.6327 403.88 57.7657 403.468 58.1007 403.419L59.4427 403.224L60.0427 402.008C60.1937 401.704 60.6267 401.704 60.7767 402.008Z" fill="#F5F5F5"/>
<path d="M87.7542 97.3009L88.3542 98.5169L89.6962 98.7119C90.0312 98.7609 90.1652 99.1719 89.9222 99.4089L88.9512 100.356L89.1802 101.693C89.2372 102.027 88.8872 102.281 88.5872 102.123L87.3862 101.492L86.1862 102.123C85.8862 102.281 85.5362 102.026 85.5932 101.693L85.8222 100.356L84.8512 99.4089C84.6092 99.1729 84.7422 98.7609 85.0772 98.7119L86.4192 98.5169L87.0192 97.3009C87.1712 96.9969 87.6042 96.9969 87.7542 97.3009Z" fill="#EBEBEB"/>
<path d="M86.1306 338.319C86.1306 339.052 85.5366 339.646 84.8036 339.646C84.0706 339.646 83.4766 339.052 83.4766 338.319C83.4766 337.586 84.0706 336.992 84.8036 336.992C85.5356 336.992 86.1306 337.586 86.1306 338.319Z" fill="#EBEBEB"/>
<path d="M275.671 171.894C275.671 172.627 275.077 173.221 274.344 173.221C273.611 173.221 273.017 172.627 273.017 171.894C273.017 171.161 273.611 170.567 274.344 170.567C275.077 170.567 275.671 171.161 275.671 171.894Z" fill="#EBEBEB"/>
<path d="M206.707 98.3999C206.707 99.1329 206.113 99.7269 205.38 99.7269C204.647 99.7269 204.053 99.1329 204.053 98.3999C204.053 97.6669 204.647 97.0729 205.38 97.0729C206.113 97.0729 206.707 97.6679 206.707 98.3999Z" fill="#F5F5F5"/>
<path d="M208.84 422.497C212.789 421.565 215.235 417.607 214.302 413.658C213.37 409.708 209.412 407.263 205.463 408.195C201.513 409.128 199.068 413.086 200 417.035C200.933 420.984 204.89 423.43 208.84 422.497Z" fill="#F0F0F0"/>
<path d="M204.597 411.09C203.037 411.09 201.587 411.59 200.407 412.45C200.017 413.35 199.797 414.34 199.797 415.38C199.797 419.44 203.087 422.72 207.147 422.72C208.517 422.72 209.807 422.34 210.907 421.681C210.897 421.671 210.897 421.671 210.907 421.671C211.457 420.651 211.767 419.491 211.767 418.251C211.767 414.3 208.557 411.09 204.597 411.09Z" fill="#E6E6E6"/>
<path d="M147.68 287.645H86.8252V260.17L147.68 187.833H176.795V261.728H191.885V287.645H176.795V310.117H147.68V287.645ZM147.68 261.728V223.89L115.524 261.728H147.68Z" fill="#407BFF"/>
<path d="M202.302 249.508C202.302 226.654 206.415 210.662 214.645 201.53C222.874 192.399 235.407 187.833 252.249 187.833C260.34 187.833 266.984 188.832 272.178 190.827C277.372 192.823 281.61 195.42 284.89 198.618C288.17 201.817 290.754 205.179 292.64 208.706C294.527 212.232 296.044 216.347 297.192 221.05C299.433 230.017 300.554 239.367 300.554 249.099C300.554 270.914 296.863 286.881 289.482 296.995C282.1 307.111 269.388 312.167 251.345 312.167C241.229 312.167 233.055 310.553 226.823 307.328C220.589 304.103 215.476 299.373 211.486 293.14C208.586 288.712 206.331 282.656 204.72 274.974C203.107 267.292 202.302 258.804 202.302 249.508ZM235.436 249.59C235.436 264.9 236.789 275.357 239.495 280.962C242.202 286.566 246.125 289.368 251.264 289.368C254.654 289.368 257.593 288.179 260.081 285.8C262.569 283.422 264.4 279.664 265.577 274.524C266.752 269.385 267.34 261.374 267.34 250.493C267.34 234.529 265.987 223.798 263.281 218.303C260.574 212.807 256.515 210.06 251.101 210.06C245.578 210.06 241.587 212.863 239.126 218.467C236.666 224.071 235.436 234.446 235.436 249.59Z" fill="#407BFF"/>
<path d="M371.745 287.645H310.89V260.17L371.745 187.833H400.86V261.728H415.95V287.645H400.86V310.117H371.745V287.645ZM371.745 261.728V223.89L339.59 261.728H371.745Z" fill="#407BFF"/>
<g opacity="0.3">
<path d="M200.952 145.618C200.952 146.648 200.117 147.483 199.087 147.483C198.057 147.483 197.222 146.648 197.222 145.618C197.222 144.588 198.057 143.753 199.087 143.753C200.117 143.753 200.952 144.588 200.952 145.618Z" fill="#407BFF"/>
<path d="M72.9656 217.452C73.6963 217.452 74.2886 216.86 74.2886 216.129C74.2886 215.398 73.6963 214.806 72.9656 214.806C72.2349 214.806 71.6426 215.398 71.6426 216.129C71.6426 216.86 72.2349 217.452 72.9656 217.452Z" fill="#407BFF"/>
<path d="M291.053 410.226C292.099 410.226 292.946 409.378 292.946 408.333C292.946 407.287 292.099 406.44 291.053 406.44C290.008 406.44 289.16 407.287 289.16 408.333C289.16 409.378 290.008 410.226 291.053 410.226Z" fill="#407BFF"/>
<path d="M336.498 333.323C337.228 333.323 337.821 332.73 337.821 332C337.821 331.269 337.228 330.677 336.498 330.677C335.767 330.677 335.175 331.269 335.175 332C335.175 332.73 335.767 333.323 336.498 333.323Z" fill="#407BFF"/>
<path d="M424.172 95.6189C424.172 96.3499 423.58 96.9419 422.849 96.9419C422.118 96.9419 421.526 96.3499 421.526 95.6189C421.526 94.8879 422.118 94.2959 422.849 94.2959C423.58 94.2959 424.172 94.8879 424.172 95.6189Z" fill="#407BFF"/>
<path d="M172.753 68.9629C172.753 69.6939 172.161 70.2859 171.43 70.2859C170.699 70.2859 170.107 69.6939 170.107 68.9629C170.107 68.2319 170.699 67.6399 171.43 67.6399C172.161 67.6399 172.753 68.2319 172.753 68.9629Z" fill="#407BFF"/>
<path d="M277.694 138.266C278.425 138.266 279.017 137.674 279.017 136.943C279.017 136.212 278.425 135.62 277.694 135.62C276.963 135.62 276.371 136.212 276.371 136.943C276.371 137.674 276.963 138.266 277.694 138.266Z" fill="#407BFF"/>
</g>
<path d="M141.232 138.271C153.333 138.271 163.142 128.461 163.142 116.361C163.142 104.26 153.333 94.4509 141.232 94.4509C129.132 94.4509 119.322 104.26 119.322 116.361C119.322 128.461 129.132 138.271 141.232 138.271Z" fill="#407BFF"/>
<path opacity="0.7" d="M141.232 138.271C153.333 138.271 163.142 128.461 163.142 116.361C163.142 104.26 153.333 94.4509 141.232 94.4509C129.132 94.4509 119.322 104.26 119.322 116.361C119.322 128.461 129.132 138.271 141.232 138.271Z" fill="white"/>
<path opacity="0.2" d="M133.681 99.8299C130.61 99.8299 127.695 100.465 125.04 101.6C121.49 105.493 119.324 110.678 119.324 116.362C119.324 128.459 129.131 138.266 141.228 138.266C144.309 138.266 147.245 137.631 149.911 136.486C149.911 136.486 149.911 136.486 149.911 136.476C153.44 132.582 155.595 127.418 155.595 121.745C155.596 109.637 145.789 99.8299 133.681 99.8299Z" fill="#407BFF"/>
<path opacity="0.2" d="M131.503 105.623C131.503 106.729 130.606 107.626 129.5 107.626C128.394 107.626 127.497 106.729 127.497 105.623C127.497 104.517 128.394 103.62 129.5 103.62C130.606 103.62 131.503 104.517 131.503 105.623Z" fill="#407BFF"/>
<path opacity="0.2" d="M155.064 103.62C155.064 104.726 154.167 105.623 153.061 105.623C151.955 105.623 151.058 104.726 151.058 103.62C151.058 102.514 151.955 101.617 153.061 101.617C154.167 101.618 155.064 102.514 155.064 103.62Z" fill="#407BFF"/>
<path opacity="0.2" d="M151.057 117.901C151.057 119.711 149.59 121.179 147.779 121.179C145.969 121.179 144.501 119.711 144.501 117.901C144.501 116.091 145.968 114.623 147.779 114.623C149.589 114.623 151.057 116.091 151.057 117.901Z" fill="#407BFF"/>
<path opacity="0.2" d="M140.641 127.246C140.641 129.666 138.679 131.627 136.26 131.627C133.84 131.627 131.879 129.665 131.879 127.246C131.879 124.826 133.841 122.865 136.26 122.865C138.679 122.865 140.641 124.827 140.641 127.246Z" fill="#407BFF"/>
<path d="M400.907 380.703C403.347 370.37 396.948 360.015 386.614 357.575C376.281 355.134 365.926 361.534 363.486 371.867C361.045 382.201 367.444 392.556 377.778 394.996C388.112 397.436 398.467 391.037 400.907 380.703Z" fill="#407BFF"/>
<path opacity="0.3" d="M400.907 380.703C403.347 370.37 396.948 360.015 386.614 357.575C376.281 355.134 365.926 361.534 363.486 371.867C361.045 382.201 367.444 392.556 377.778 394.996C388.112 397.436 398.467 391.037 400.907 380.703Z" fill="white"/>
<path opacity="0.4" d="M394.332 361.339C392.583 360.808 390.72 360.527 388.794 360.527C378.175 360.527 369.565 369.137 369.565 379.755C369.565 385.773 372.324 391.134 376.655 394.663C378.404 395.194 380.267 395.475 382.194 395.475C392.813 395.475 401.422 386.865 401.422 376.247C401.422 370.23 398.663 364.858 394.332 361.339Z" fill="#407BFF"/>
<path d="M363.83 381.948C343.296 391.61 358.614 399.057 387.542 388.661C414.326 379.035 424.509 366.892 400.594 370.655C401.828 375.763 368.282 388.834 363.83 381.948Z" fill="#407BFF"/>
<path opacity="0.2" d="M394.097 187.83C367.207 206 332.397 229.96 322.787 287.64H320.737C330.087 230.66 363.627 206.07 390.527 187.83H394.097Z" fill="black"/>
<path d="M255.019 368.267C238.049 368.268 221.21 360.605 213.033 348.081C207.98 340.342 202.113 324.131 219.588 302.503L221.144 303.761C208.782 319.06 206.496 334.411 214.708 346.988C224.702 362.297 248.304 369.994 268.438 364.516C289.066 358.903 301.59 340.959 302.799 315.288C306.934 227.481 353.583 200.433 387.645 180.683C408.807 168.413 424.097 159.547 420.736 140.845C420.27 138.25 419.235 136.457 417.573 135.364C413.22 132.496 404.72 134.478 394.879 136.772C375.573 141.269 349.133 147.429 333.382 120.638L335.106 119.624C350.112 145.147 374.683 139.424 394.425 134.823C404.715 132.427 413.602 130.356 418.673 133.692C420.818 135.104 422.137 137.328 422.705 140.491C426.314 160.573 409.692 170.211 388.648 182.413C354.984 201.932 308.88 228.664 304.796 315.381C303.544 341.977 290.483 360.589 268.962 366.445C264.427 367.679 259.716 368.266 255.019 368.267Z" fill="#407BFF"/>
<path opacity="0.2" d="M255.019 368.267C238.049 368.268 221.21 360.605 213.033 348.081C207.98 340.342 202.113 324.131 219.588 302.503L221.144 303.761C208.782 319.06 206.496 334.411 214.708 346.988C224.702 362.297 248.304 369.994 268.438 364.516C289.066 358.903 301.59 340.959 302.799 315.288C306.934 227.481 353.583 200.433 387.645 180.683C408.807 168.413 424.097 159.547 420.736 140.845C420.27 138.25 419.235 136.457 417.573 135.364C413.22 132.496 404.72 134.478 394.879 136.772C375.573 141.269 349.133 147.429 333.382 120.638L335.106 119.624C350.112 145.147 374.683 139.424 394.425 134.823C404.715 132.427 413.602 130.356 418.673 133.692C420.818 135.104 422.137 137.328 422.705 140.491C426.314 160.573 409.692 170.211 388.648 182.413C354.984 201.932 308.88 228.664 304.796 315.381C303.544 341.977 290.483 360.589 268.962 366.445C264.427 367.679 259.716 368.266 255.019 368.267Z" fill="white"/>
<path d="M312.758 96.949C319.613 96.824 326.34 99.083 326.34 99.083C326.34 99.083 337.305 117.854 338.642 122.15C338.181 126.39 331.027 133.341 331.027 133.341L312.758 96.949Z" fill="#407BFF"/>
<path opacity="0.3" d="M312.758 96.949C319.613 96.824 326.34 99.083 326.34 99.083C326.34 99.083 337.305 117.854 338.642 122.15C338.181 126.39 331.027 133.341 331.027 133.341L312.758 96.949Z" fill="white"/>
<path d="M345.338 188.133C341.202 182.885 337.141 177.539 333.779 171.748C332.939 170.301 332.143 168.827 331.39 167.333C330.962 166.484 330.548 165.628 330.146 164.766C329.795 164.013 329.02 162.904 328.942 162.082C327.741 149.41 332.079 140.082 327.914 129.91L311.443 136.347C311.443 136.347 312.844 154.469 316.041 165.31C318.025 172.036 322.516 177.859 326.844 183.247C328.198 184.933 329.503 186.657 330.854 188.345C332.133 189.943 333.566 191.409 334.848 192.999C336.795 195.412 337.443 197.715 335.963 200.56C335.884 200.712 335.801 200.863 335.716 201.013C335.296 201.754 337.262 202.594 338.497 201.034C340.539 198.453 340.218 198.612 341.959 196.411C343.016 195.075 344.23 193.632 345.278 192.378C346.302 191.155 346.325 189.385 345.338 188.133Z" fill="#407BFF"/>
<path opacity="0.7" d="M345.338 188.133C341.202 182.885 337.141 177.539 333.779 171.748C332.939 170.301 332.143 168.827 331.39 167.333C330.962 166.484 330.548 165.628 330.146 164.766C329.795 164.013 329.02 162.904 328.942 162.082C327.741 149.41 332.079 140.082 327.914 129.91L311.443 136.347C311.443 136.347 312.844 154.469 316.041 165.31C318.025 172.036 322.516 177.859 326.844 183.247C328.198 184.933 329.503 186.657 330.854 188.345C332.133 189.943 333.566 191.409 334.848 192.999C336.795 195.412 337.443 197.715 335.963 200.56C335.884 200.712 335.801 200.863 335.716 201.013C335.296 201.754 337.262 202.594 338.497 201.034C340.539 198.453 340.218 198.612 341.959 196.411C343.016 195.075 344.23 193.632 345.278 192.378C346.302 191.155 346.325 189.385 345.338 188.133Z" fill="white"/>
<path opacity="0.3" d="M341.311 182.918C339.106 185.583 334.623 189.04 332.647 190.441C333.077 190.92 333.503 191.409 333.93 191.898C337.998 189.241 341.214 185.794 342.434 184.394C342.057 183.909 341.684 183.413 341.311 182.918Z" fill="#407BFF"/>
<path opacity="0.3" d="M345.334 188.135C345.296 188.083 345.256 188.041 345.218 187.99C344.524 188.713 344.035 189.866 343.953 191.16C343.887 192.054 344.037 192.872 344.33 193.511C344.663 193.125 344.974 192.743 345.279 192.38C346.307 191.156 346.321 189.387 345.334 188.135Z" fill="#407BFF"/>
<path d="M308.841 108.951C307.118 111.457 305.087 113.927 302.466 116.145C301.165 117.26 299.68 118.269 298.049 119.125C297.226 119.545 296.361 119.909 295.466 120.21L294.791 120.427L294.573 120.495C294.415 120.543 294.256 120.586 294.096 120.624C293.794 120.692 293.491 120.738 293.223 120.76C292.14 120.842 291.355 120.688 290.708 120.527C289.431 120.179 288.578 119.714 287.771 119.263C286.976 118.804 286.278 118.334 285.617 117.849C284.315 116.858 283.137 115.863 282.039 114.801C279.829 112.691 277.869 110.503 276.049 108.066C275.219 106.955 275.447 105.382 276.558 104.553C277.415 103.912 278.548 103.902 279.401 104.441L279.477 104.49C281.837 105.988 284.218 107.568 286.541 108.982C287.714 109.674 288.86 110.37 289.987 110.912C290.541 111.192 291.084 111.447 291.574 111.628C292.051 111.814 292.527 111.92 292.651 111.895C292.703 111.892 292.641 111.821 292.273 111.834C292.184 111.839 292.058 111.851 291.93 111.879C291.856 111.893 291.784 111.912 291.712 111.935C291.643 111.958 291.741 111.916 291.747 111.91L292.078 111.741C292.518 111.517 292.94 111.237 293.368 110.952C294.224 110.373 295.039 109.638 295.871 108.832C297.517 107.197 299.101 105.162 300.773 103.046L300.795 103.017C302.507 100.849 305.653 100.48 307.821 102.192C309.897 103.831 310.314 106.8 308.841 108.951Z" fill="#407BFF"/>
<path opacity="0.7" d="M308.841 108.951C307.118 111.457 305.087 113.927 302.466 116.145C301.165 117.26 299.68 118.269 298.049 119.125C297.226 119.545 296.361 119.909 295.466 120.21L294.791 120.427L294.573 120.495C294.415 120.543 294.256 120.586 294.096 120.624C293.794 120.692 293.491 120.738 293.223 120.76C292.14 120.842 291.355 120.688 290.708 120.527C289.431 120.179 288.578 119.714 287.771 119.263C286.976 118.804 286.278 118.334 285.617 117.849C284.315 116.858 283.137 115.863 282.039 114.801C279.829 112.691 277.869 110.503 276.049 108.066C275.219 106.955 275.447 105.382 276.558 104.553C277.415 103.912 278.548 103.902 279.401 104.441L279.477 104.49C281.837 105.988 284.218 107.568 286.541 108.982C287.714 109.674 288.86 110.37 289.987 110.912C290.541 111.192 291.084 111.447 291.574 111.628C292.051 111.814 292.527 111.92 292.651 111.895C292.703 111.892 292.641 111.821 292.273 111.834C292.184 111.839 292.058 111.851 291.93 111.879C291.856 111.893 291.784 111.912 291.712 111.935C291.643 111.958 291.741 111.916 291.747 111.91L292.078 111.741C292.518 111.517 292.94 111.237 293.368 110.952C294.224 110.373 295.039 109.638 295.871 108.832C297.517 107.197 299.101 105.162 300.773 103.046L300.795 103.017C302.507 100.849 305.653 100.48 307.821 102.192C309.897 103.831 310.314 106.8 308.841 108.951Z" fill="white"/>
<path d="M272.285 102.416L273.457 104.382C273.457 104.382 274.352 106.998 276.143 107.482L280.997 105.91L280.754 105.502C280.756 105.503 280.759 105.503 280.761 105.503C280.139 104.556 280.206 102.73 280.425 101.211C280.643 99.692 279.855 99.638 279.273 100.016C278.937 100.234 278.699 100.927 278.426 101.674C278.187 101.345 277.931 101.028 277.642 100.74L276.159 99.263C275.519 98.626 274.494 98.597 273.819 99.197L272.617 100.265C272.005 100.809 271.866 101.712 272.285 102.416Z" fill="#407BFF"/>
<path opacity="0.7" d="M272.285 102.416L273.457 104.382C273.457 104.382 274.352 106.998 276.143 107.482L280.997 105.91L280.754 105.502C280.756 105.503 280.759 105.503 280.761 105.503C280.139 104.556 280.206 102.73 280.425 101.211C280.643 99.692 279.855 99.638 279.273 100.016C278.937 100.234 278.699 100.927 278.426 101.674C278.187 101.345 277.931 101.028 277.642 100.74L276.159 99.263C275.519 98.626 274.494 98.597 273.819 99.197L272.617 100.265C272.005 100.809 271.866 101.712 272.285 102.416Z" fill="white"/>
<path d="M317.674 95.224C313.025 96.352 306.638 99.005 302.325 101.692C300.796 102.644 300.033 104.452 300.393 106.217C302.317 115.657 306.707 128.302 311.446 136.346L333.557 127.199C333.709 123.299 328.341 110.679 322.873 98.482C321.891 96.288 320.01 94.658 317.674 95.224Z" fill="#407BFF"/>
<path opacity="0.8" d="M317.674 95.224C313.025 96.352 306.638 99.005 302.325 101.692C300.796 102.644 300.033 104.452 300.393 106.217C302.317 115.657 306.707 128.302 311.446 136.346L333.557 127.199C333.709 123.299 328.341 110.679 322.873 98.482C321.891 96.288 320.01 94.658 317.674 95.224Z" fill="white"/>
<path opacity="0.3" d="M326.295 106.214L321.907 104.743C322.889 107.31 326.44 110.564 328.937 112.475C328.114 110.469 327.222 108.372 326.295 106.214Z" fill="#407BFF"/>
<path d="M316.217 85.32C314.392 81.839 310.443 80.087 305.701 80.483C301.703 80.817 298.157 84.899 298.578 87.105C298.998 89.311 302.363 90.245 302.972 91.011L300.199 93.021C298.819 94.022 298.549 95.968 299.603 97.308C300.77 98.79 302.306 100.338 303.201 101.431C310.865 101.232 316.533 98.308 318.575 95.495C317.841 91.916 318.032 88.782 316.217 85.32Z" fill="#407BFF"/>
<path opacity="0.8" d="M316.217 85.32C314.392 81.839 310.443 80.087 305.701 80.483C301.703 80.817 298.157 84.899 298.578 87.105C298.998 89.311 302.363 90.245 302.972 91.011L300.199 93.021C298.819 94.022 298.549 95.968 299.603 97.308C300.77 98.79 302.306 100.338 303.201 101.431C310.865 101.232 316.533 98.308 318.575 95.495C317.841 91.916 318.032 88.782 316.217 85.32Z" fill="white"/>
<path d="M312.46 87.476C313.982 91.372 312.059 95.764 308.163 97.286C304.267 98.808 299.875 96.885 298.353 92.989C296.831 89.094 298.754 84.701 302.65 83.179C306.545 81.657 310.937 83.581 312.46 87.476Z" fill="#263238"/>
<path d="M377.387 177.596C377.276 174.307 377.134 174.636 377.038 171.832C376.98 170.129 376.973 168.243 376.962 166.609C376.951 165.014 375.824 163.649 374.261 163.332C372.936 163.063 371.607 162.807 370.284 162.525C368.558 162.157 366.852 161.761 365.157 161.269C363.843 160.887 362.54 160.466 361.252 160.002C359.872 159.505 358.511 158.96 357.163 158.382C355.587 157.706 354.03 156.986 352.485 156.244C350.76 155.416 349.048 154.56 347.342 153.693C340.761 142.798 340.619 135.619 333.556 127.198L318.396 134.056C318.396 134.056 329.535 153.821 337.121 162.201C341.488 167.024 348.339 169.198 354.449 170.776C358.857 171.914 363.327 172.785 367.802 173.607C369.542 173.926 371.433 174.05 372.93 175.089C374.109 175.907 374.719 177.184 375.067 178.541C375.138 178.818 375.198 179.098 375.252 179.38C375.412 180.217 377.455 179.585 377.387 177.596Z" fill="#407BFF"/>
<path opacity="0.8" d="M377.387 177.596C377.276 174.307 377.134 174.636 377.038 171.832C376.98 170.129 376.973 168.243 376.962 166.609C376.951 165.014 375.824 163.649 374.261 163.332C372.936 163.063 371.607 162.807 370.284 162.525C368.558 162.157 366.852 161.761 365.157 161.269C363.843 160.887 362.54 160.466 361.252 160.002C359.872 159.505 358.511 158.96 357.163 158.382C355.587 157.706 354.03 156.986 352.485 156.244C350.76 155.416 349.048 154.56 347.342 153.693C340.761 142.798 340.619 135.619 333.556 127.198L318.396 134.056C318.396 134.056 329.535 153.821 337.121 162.201C341.488 167.024 348.339 169.198 354.449 170.776C358.857 171.914 363.327 172.785 367.802 173.607C369.542 173.926 371.433 174.05 372.93 175.089C374.109 175.907 374.719 177.184 375.067 178.541C375.138 178.818 375.198 179.098 375.252 179.38C375.412 180.217 377.455 179.585 377.387 177.596Z" fill="white"/>
<path opacity="0.3" d="M369.7 162.4C369.103 162.269 368.497 162.135 367.894 161.992C367.941 165.445 366.322 171.409 365.727 173.216C366.358 173.335 366.998 173.457 367.629 173.577C369.384 168.832 369.66 163.809 369.7 162.4Z" fill="#407BFF"/>
<path opacity="0.3" d="M376.961 166.61C376.95 165.011 375.827 163.649 374.267 163.329C373.953 163.265 373.629 163.197 373.312 163.143C373.378 164.083 373.963 165.174 374.941 166.04C375.582 166.618 376.307 167.002 376.973 167.183C376.963 166.984 376.962 166.797 376.961 166.61Z" fill="#407BFF"/>
<path d="M311.045 87.54C311.45 89.056 309.753 90.65 308.395 89.339C307.293 88.275 305.633 86.493 304.278 85.646C302.886 84.775 304.742 83.259 306.928 83.847C308.969 84.397 310.64 86.023 311.045 87.54Z" fill="white"/>
<path d="M311.16 135.86C310.455 136.12 311.743 137.316 311.743 137.316C311.743 137.316 325.713 132.529 334.238 127.6C334.31 126.569 333.56 126.022 333.56 126.022C333.56 126.022 323.188 131.426 311.16 135.86Z" fill="#407BFF"/>
<path opacity="0.5" d="M311.16 135.86C310.455 136.12 311.743 137.316 311.743 137.316C311.743 137.316 325.713 132.529 334.238 127.6C334.31 126.569 333.56 126.022 333.56 126.022C333.56 126.022 323.188 131.426 311.16 135.86Z" fill="white"/>
<path d="M321.459 94.5631C324.217 95.9561 326.813 97.4311 329.406 99.0641C330.697 99.8771 331.982 100.712 333.248 101.613C334.524 102.496 335.783 103.427 337.046 104.475L337.52 104.863L338.111 105.396C338.531 105.766 338.839 106.107 339.148 106.447C339.472 106.798 339.739 107.136 340.002 107.473C340.275 107.812 340.534 108.149 340.767 108.481C341.756 109.809 342.562 111.16 343.353 112.5C344.89 115.217 346.221 117.93 347.319 120.849C347.809 122.151 347.151 123.603 345.848 124.094C344.87 124.462 343.806 124.182 343.13 123.468L343.081 123.414C341.072 121.286 339.145 119.041 337.206 116.956C335.309 114.877 333.294 112.743 331.669 111.815C329.399 110.399 326.871 108.993 324.359 107.608L316.796 103.41L316.777 103.4C314.362 102.06 313.491 99.0161 314.831 96.6011C316.14 94.2461 319.076 93.3631 321.459 94.5631Z" fill="#407BFF"/>
<path opacity="0.8" d="M321.459 94.5631C324.217 95.9561 326.813 97.4311 329.406 99.0641C330.697 99.8771 331.982 100.712 333.248 101.613C334.524 102.496 335.783 103.427 337.046 104.475L337.52 104.863L338.111 105.396C338.531 105.766 338.839 106.107 339.148 106.447C339.472 106.798 339.739 107.136 340.002 107.473C340.275 107.812 340.534 108.149 340.767 108.481C341.756 109.809 342.562 111.16 343.353 112.5C344.89 115.217 346.221 117.93 347.319 120.849C347.809 122.151 347.151 123.603 345.848 124.094C344.87 124.462 343.806 124.182 343.13 123.468L343.081 123.414C341.072 121.286 339.145 119.041 337.206 116.956C335.309 114.877 333.294 112.743 331.669 111.815C329.399 110.399 326.871 108.993 324.359 107.608L316.796 103.41L316.777 103.4C314.362 102.06 313.491 99.0161 314.831 96.6011C316.14 94.2461 319.076 93.3631 321.459 94.5631Z" fill="white"/>
<path d="M349.732 125.738L348.883 123.613C348.883 123.613 348.409 120.889 346.716 120.13L341.676 120.922L341.852 121.363C341.85 121.362 341.848 121.361 341.845 121.361C342.311 122.393 341.958 124.187 341.504 125.652C341.05 127.118 341.82 127.295 342.454 127.013C342.82 126.85 343.164 126.203 343.55 125.508C343.735 125.871 343.938 126.224 344.178 126.553L345.411 128.244C345.943 128.973 346.951 129.163 347.712 128.676L349.066 127.809C349.757 127.368 350.037 126.499 349.732 125.738Z" fill="#407BFF"/>
<path opacity="0.8" d="M349.732 125.738L348.883 123.613C348.883 123.613 348.409 120.889 346.716 120.13L341.676 120.922L341.852 121.363C341.85 121.362 341.848 121.361 341.845 121.361C342.311 122.393 341.958 124.187 341.504 125.652C341.05 127.118 341.82 127.295 342.454 127.013C342.82 126.85 343.164 126.203 343.55 125.508C343.735 125.871 343.938 126.224 344.178 126.553L345.411 128.244C345.943 128.973 346.951 129.163 347.712 128.676L349.066 127.809C349.757 127.368 350.037 126.499 349.732 125.738Z" fill="white"/>
<path opacity="0.3" d="M317.235 106.057L316.016 106.156L308.531 124.24C308.971 124.27 309.375 124.233 309.749 124.141C309.749 124.141 319.509 120.504 322.463 119.171C320.475 115.051 317.235 106.057 317.235 106.057Z" fill="#407BFF"/>
<path d="M303.567 110.802C303.984 114.059 306.426 120.981 308.532 124.24C312.187 122.98 318.292 120.603 321.246 119.27C319.257 115.151 317.163 109.475 316.017 106.157C312.868 106.366 306.005 108.951 303.567 110.802Z" fill="white"/>
<path opacity="0.3" d="M310.999 114.713C310.591 116.078 309.153 116.853 307.789 116.444C306.425 116.035 305.649 114.598 306.058 113.234C306.467 111.869 307.904 111.094 309.268 111.503C310.632 111.911 311.407 113.348 310.999 114.713Z" fill="#407BFF"/>
<path opacity="0.6" d="M312.912 111.268C312.778 111.715 312.307 111.969 311.86 111.835C311.413 111.701 311.159 111.23 311.292 110.783C311.426 110.336 311.897 110.082 312.344 110.216C312.792 110.349 313.046 110.82 312.912 111.268Z" fill="#407BFF"/>
<path opacity="0.6" d="M315.144 110.399C315.01 110.846 314.539 111.1 314.092 110.966C313.645 110.832 313.391 110.361 313.525 109.914C313.659 109.467 314.13 109.213 314.577 109.347C315.024 109.481 315.278 109.952 315.144 110.399Z" fill="#407BFF"/>
<path opacity="0.5" d="M318.29 118.187L309.043 121.841L308.484 120.023L317.731 116.368L318.29 118.187Z" fill="#407BFF"/>
<path opacity="0.2" d="M267.258 257.17C267.058 264.71 266.498 270.5 265.578 274.52C264.398 279.66 262.568 283.42 260.078 285.8C257.598 288.18 254.658 289.37 251.268 289.37C246.128 289.37 242.198 286.57 239.498 280.96C239.058 280.05 238.658 279.01 238.288 277.85C232.578 282.76 227.258 288.12 222.368 293.88L217.058 300.14C219.928 303.05 223.188 305.44 226.828 307.33C233.058 310.55 241.228 312.17 251.348 312.17C253.128 312.17 254.848 312.12 256.518 312.02C262.638 302.96 267.708 293.22 271.618 283L286.468 244.28L267.258 257.17Z" fill="black"/>
<path d="M133.389 309.958C138.986 315.555 150.891 327.46 150.891 327.46L199.902 281.293C183.036 274.881 150.16 293.188 133.389 309.958Z" fill="#263238"/>
<path d="M194.423 370.992C188.826 365.395 176.921 353.49 176.921 353.49L223.088 304.48C229.5 321.345 211.194 354.221 194.423 370.992Z" fill="#263238"/>
<path d="M261.399 260.699L280.49 223.89L243.681 242.981C231.855 249.115 220.937 256.858 211.237 265.989L148.49 325.059L179.32 355.889L238.39 293.142C247.522 283.443 255.265 272.525 261.399 260.699Z" fill="#407BFF"/>
<path opacity="0.6" d="M261.399 260.699L280.49 223.89L243.681 242.981C231.855 249.115 220.937 256.858 211.237 265.989L148.49 325.059L179.32 355.889L238.39 293.142C247.522 283.443 255.265 272.525 261.399 260.699Z" fill="white"/>
<path d="M222.199 295.082C229.323 295.082 235.098 289.307 235.098 282.183C235.098 275.059 229.323 269.284 222.199 269.284C215.075 269.284 209.3 275.059 209.3 282.183C209.3 289.307 215.075 295.082 222.199 295.082Z" fill="white"/>
<path d="M222.197 290.468C226.773 290.468 230.482 286.759 230.482 282.183C230.482 277.607 226.773 273.898 222.197 273.898C217.621 273.898 213.912 277.607 213.912 282.183C213.912 286.759 217.621 290.468 222.197 290.468Z" fill="#407BFF"/>
<path opacity="0.3" d="M189.746 344.816L159.564 314.635L184.275 291.371L213.009 320.105L189.746 344.816Z" fill="#407BFF"/>
<path d="M140.22 337.616C117.615 339.455 110.127 353.922 107.573 373.155C106.271 382.964 105.693 392.888 97.4565 398.63C95.1705 400.224 96.3055 403.777 99.0915 403.69C129.43 402.743 143.581 387.886 145.358 381.665C144.746 385.598 143.854 388.7 142.866 391.14C141.85 393.647 144.603 395.967 146.895 394.531C155.412 389.195 166.094 379.376 166.804 363.453C160.507 354.603 140.22 337.616 140.22 337.616Z" fill="#407BFF"/>
<path opacity="0.2" d="M140.22 337.616C117.615 339.455 110.127 353.922 107.573 373.155C106.271 382.964 105.693 392.888 97.4565 398.63C95.1705 400.224 96.3055 403.777 99.0915 403.69C129.43 402.743 143.581 387.886 145.358 381.665C144.746 385.598 143.854 388.7 142.866 391.14C141.85 393.647 144.603 395.967 146.895 394.531C155.412 389.195 166.094 379.376 166.804 363.453C160.507 354.603 140.22 337.616 140.22 337.616Z" fill="white"/>
<path d="M170.276 370.3L134.08 334.104L153.363 329.933L174.448 351.017L170.276 370.3Z" fill="#407BFF"/>
</svg>
