<svg width="134" height="26" viewBox="0 0 134 26" fill="none" xmlns="http://www.w3.org/2000/svg">
    <path d="M19.5902 5.23018C17.4933 4.3004 15.6329 4.37268 14.0092 5.44703C13.4477 5.8191 13.0163 6.36008 12.4936 6.79378C12.4388 6.83791 12.4167 6.89497 12.4274 6.96498C12.435 7.01215 12.4555 7.04411 12.489 7.06085C12.2622 7.18563 12.1169 7.27998 12.053 7.34389C10.8021 8.59172 9.5368 9.8563 8.25701 11.1376C8.03331 11.3628 7.69776 11.477 7.25037 11.48C4.7547 11.5013 2.54512 11.5028 0.621635 11.4846C0.000761265 11.48 -0.177283 10.7861 0.217611 10.3912C3.13632 7.48009 6.00634 4.61083 8.82766 1.78342C10.8866 -0.28235 14.0731 -0.32572 16.1686 1.71494C17.2764 2.79539 18.417 3.96713 19.5902 5.23018Z" fill="#7E7E7E"/>
    <path d="M5.875 20.692C6.24478 20.6585 6.85424 20.7148 7.70338 20.8609C8.42621 20.9841 9.27154 20.8442 10.2394 20.4409C11.1091 20.0779 11.9924 19.2676 12.5928 18.5691C12.6354 18.5189 12.6369 18.4413 12.5973 18.3363C12.7601 18.2861 12.8591 18.2442 12.8941 18.2108C18.6508 12.4525 24.489 6.61581 30.4086 0.700772C30.7693 0.3424 30.9861 0.189463 31.5294 0.189463C33.8181 0.180332 36.0558 0.181855 38.2426 0.194029C38.361 0.194606 38.4765 0.230275 38.5746 0.296555C38.6727 0.362835 38.749 0.456766 38.7939 0.56654C38.8388 0.676314 38.8503 0.79703 38.8269 0.913513C38.8035 1.03 38.7464 1.13705 38.6626 1.22121C31.1588 8.72647 23.6452 16.2317 16.1217 23.737C14.1449 25.7069 10.9812 25.7685 8.96567 23.8123C7.95675 22.8323 6.92653 21.7922 5.875 20.692Z" fill="#7E7E7E"/>
    <path d="M19.5903 5.22907C19.7653 5.35994 19.9973 5.55168 20.2865 5.80429C20.6334 6.10712 20.7567 6.42745 20.6563 6.76527C20.5984 6.95549 20.482 7.13734 20.307 7.31082C19.327 8.27865 18.3036 9.29594 17.2369 10.3627C16.8367 10.7614 16.4167 10.7416 15.9769 10.3033C14.9649 9.2929 13.9514 8.28855 12.9364 7.29028C12.801 7.15789 12.6519 7.08104 12.489 7.05973C12.4556 7.043 12.435 7.01104 12.4274 6.96386C12.4168 6.89386 12.4388 6.8368 12.4936 6.79267C13.0163 6.35897 13.4477 5.81799 14.0093 5.44592C15.633 4.37157 17.4933 4.29928 19.5903 5.22907Z" fill="#606060"/>
    <path d="M42.5233 10.3751C42.5233 10.2443 42.5629 10.1316 42.642 10.0373C42.6711 10.0029 42.7096 9.97775 42.7527 9.96516C42.7957 9.95256 42.8414 9.95304 42.884 9.96653L44.1075 10.3386C44.1551 10.353 44.1959 10.3842 44.222 10.4263C44.2481 10.4684 44.2577 10.5184 44.249 10.5669C44.0618 11.6055 43.2926 12.4386 42.2403 12.6304C40.4302 12.9613 38.6178 12.2218 38.5493 10.1354C38.5143 9.0687 38.5211 8.09859 38.5698 7.2251C38.6748 5.3602 40.4964 4.53846 42.1946 4.88998C43.2279 5.10302 43.896 5.75129 44.1988 6.83478C44.2429 6.98695 44.1889 7.08586 44.0367 7.13152L42.8155 7.49673C42.6679 7.54086 42.5796 7.48685 42.5507 7.33467C42.4275 6.68336 41.9664 6.40108 41.1675 6.48782C40.5786 6.55173 40.3024 7.02651 40.275 7.56065C40.2384 8.28196 40.2308 8.99718 40.2521 9.70631C40.2681 10.2131 40.3982 10.7312 40.905 10.9709C41.4574 11.2311 41.9641 11.1147 42.4252 10.6216C42.4881 10.5557 42.5232 10.4675 42.5233 10.3751Z" fill="#7E7E7E"/>
    <path d="M77.8271 10.0105C77.8252 10.3651 77.7535 10.7159 77.6161 11.0428C77.4787 11.3697 77.2782 11.6663 77.0262 11.9158C76.7741 12.1652 76.4754 12.3625 76.1471 12.4965C75.8187 12.6305 75.4672 12.6985 75.1126 12.6967L74.3503 12.6927C73.9957 12.6908 73.6449 12.6191 73.318 12.4817C72.9911 12.3443 72.6944 12.1438 72.445 11.8918C72.1956 11.6397 71.9982 11.341 71.8642 11.0127C71.7302 10.6843 71.6622 10.3328 71.6641 9.97822L71.677 7.50847C71.6789 7.15386 71.7506 6.80309 71.888 6.47618C72.0254 6.14927 72.2259 5.85264 72.4779 5.6032C72.73 5.35377 73.0287 5.15643 73.357 5.02244C73.6854 4.88845 74.0369 4.82045 74.3915 4.8223L75.1538 4.8263C75.5085 4.82815 75.8592 4.89984 76.1861 5.03726C76.513 5.17468 76.8097 5.37514 77.0591 5.6272C77.3085 5.87926 77.5059 6.17798 77.6399 6.5063C77.7739 6.83463 77.8419 7.18614 77.84 7.54075L77.8271 10.0105ZM76.0668 7.56795C76.0668 7.28039 75.9526 7.00461 75.7493 6.80128C75.5459 6.59794 75.2702 6.48371 74.9826 6.48371H74.5306C74.2431 6.48371 73.9673 6.59794 73.764 6.80128C73.5606 7.00461 73.4464 7.28039 73.4464 7.56795V9.99666C73.4464 10.2842 73.5606 10.56 73.764 10.7633C73.9673 10.9667 74.2431 11.0809 74.5306 11.0809H74.9826C75.2702 11.0809 75.5459 10.9667 75.7493 10.7633C75.9526 10.56 76.0668 10.2842 76.0668 9.99666V7.56795Z" fill="#7E7E7E"/>
    <path d="M83.1334 10.3659L83.1996 10.1011C83.2059 10.0742 83.2176 10.0488 83.2342 10.0267C83.2507 10.0045 83.2716 9.986 83.2956 9.97229C83.3196 9.95858 83.3461 9.94997 83.3736 9.94699C83.4011 9.94402 83.4289 9.94675 83.4553 9.955L84.697 10.3316C84.7273 10.3405 84.7556 10.3553 84.7802 10.3752C84.8048 10.3951 84.8252 10.4196 84.8403 10.4474C84.8553 10.4752 84.8647 10.5057 84.868 10.5372C84.8712 10.5686 84.8682 10.6004 84.8591 10.6307C84.4147 12.1448 83.3601 12.8326 81.6954 12.6942C78.8238 12.4568 78.9516 9.68109 79.1069 7.52629C79.2393 5.70248 80.4582 4.69356 82.3048 4.82139C83.5816 4.90965 84.4109 5.56248 84.7929 6.77988C84.8537 6.97009 84.7883 7.09336 84.5966 7.14966L83.4849 7.47151C83.3084 7.52325 83.1981 7.4601 83.1539 7.28205C83.0246 6.75248 82.6594 6.48238 82.0583 6.47172C81.3202 6.45955 80.9322 6.8027 80.8942 7.50119C80.8592 8.1388 80.8493 8.8038 80.8645 9.4962C80.8736 9.99838 80.8896 10.5987 81.3758 10.8932C81.9434 11.2356 82.4707 11.164 82.9576 10.6786C83.0459 10.5919 83.1045 10.4876 83.1334 10.3659Z" fill="#7E7E7E"/>
    <path d="M125.335 7.27331C125.067 6.45385 124.563 6.44016 123.814 6.51777C123.269 6.57483 123.075 7.16603 123.05 7.62712C123.01 8.37734 123.012 9.13669 123.054 9.90518C123.139 11.4711 125.298 11.4094 125.373 10.1563C125.385 9.96453 125.483 9.89757 125.665 9.9554L126.809 10.3138C126.983 10.3686 127.05 10.4842 127.012 10.6607C126.649 12.359 125.026 12.9662 123.454 12.6352C122.159 12.3628 121.449 11.5586 121.326 10.2225C121.255 9.42963 121.242 8.57821 121.287 7.66821C121.37 6.00494 122.178 5.06145 123.714 4.83776C125.191 4.62319 126.567 5.25091 126.935 6.7757C126.983 6.9781 126.908 7.10896 126.709 7.16831L125.704 7.46734C125.519 7.52212 125.395 7.45745 125.335 7.27331Z" fill="#7E7E7E"/>
    <path d="M47.1648 10.1102L47.1877 12.4088C47.188 12.4309 47.1839 12.4528 47.1756 12.4733C47.1674 12.4937 47.1552 12.5124 47.1397 12.5281C47.1242 12.5438 47.1057 12.5563 47.0853 12.5648C47.065 12.5733 47.0431 12.5777 47.021 12.5777L45.5898 12.5823C45.4726 12.5823 45.4141 12.5229 45.4141 12.4042L45.4163 5.04734C45.4163 5.02472 45.4249 5.003 45.4402 4.98679C45.4556 4.97059 45.4765 4.96119 45.4985 4.96059C46.5242 4.95146 47.5255 4.9507 48.5024 4.95831C49.8058 4.96744 50.8444 5.77321 50.8787 7.09941C50.906 8.19279 50.7988 9.03279 49.7351 9.63312C49.7276 9.63727 49.7209 9.64284 49.7156 9.64949C49.7102 9.65614 49.7063 9.66374 49.7039 9.67184C49.7016 9.67993 49.7009 9.68836 49.7019 9.69661C49.703 9.70486 49.7057 9.71277 49.71 9.71986C50.2563 10.6801 50.766 11.6205 51.2393 12.5412C51.2402 12.5427 51.2406 12.5444 51.2406 12.5461C51.2405 12.5478 51.24 12.5495 51.2391 12.5509C51.2381 12.5523 51.2368 12.5535 51.2352 12.5542C51.2336 12.5549 51.2319 12.5551 51.2302 12.5549C50.8695 12.5838 50.2487 12.5884 49.3676 12.5686C49.3454 12.5678 49.3239 12.5613 49.3054 12.5496C49.2869 12.538 49.2721 12.5216 49.2626 12.5024L48.0436 10.1011C47.9919 10.0006 47.9097 9.95041 47.7971 9.95041L47.3223 9.95269C47.2173 9.95269 47.1648 10.0052 47.1648 10.1102ZM47.1648 6.62691L47.1785 8.35257C47.1788 8.36546 47.1817 8.37817 47.1869 8.38997C47.1921 8.40176 47.1996 8.41241 47.2089 8.42132C47.2182 8.43022 47.2292 8.4372 47.2412 8.44185C47.2532 8.44651 47.2661 8.44874 47.279 8.44844L48.3267 8.43931C48.5418 8.43694 48.7473 8.34717 48.8979 8.1897C49.0485 8.03223 49.132 7.81991 49.1302 7.59931L49.1279 7.34365C49.126 7.12272 49.0387 6.91154 48.885 6.75659C48.7313 6.60163 48.5239 6.51557 48.3084 6.51734L47.2607 6.52647C47.2478 6.52677 47.2351 6.5296 47.2233 6.53481C47.2115 6.54002 47.2009 6.5475 47.192 6.55683C47.1831 6.56616 47.1761 6.57715 47.1714 6.58917C47.1668 6.6012 47.1645 6.61402 47.1648 6.62691Z" fill="#7E7E7E"/>
    <path d="M54.8921 7.65623L56.2092 5.07458C56.2503 4.99241 56.3172 4.95132 56.4101 4.95132L57.9782 4.95817C57.9999 4.95818 58.0211 4.96386 58.0399 4.97467C58.0586 4.98548 58.0743 5.00106 58.0853 5.01988C58.0963 5.03871 58.1023 5.06015 58.1028 5.08213C58.1032 5.10412 58.0981 5.12589 58.0878 5.14534C57.4076 6.37948 56.6566 7.69808 55.8348 9.10113C55.6948 9.34004 55.6279 9.60103 55.634 9.88407C55.6507 10.7804 55.6515 11.6432 55.6363 12.4726C55.6347 12.5456 55.5975 12.5821 55.5244 12.5821L54.0247 12.5798C53.9319 12.5798 53.8855 12.5327 53.8855 12.4383L53.8946 9.71059C53.8946 9.56107 53.8561 9.41475 53.7828 9.28602C52.9199 7.77189 52.1149 6.34753 51.3678 5.01296C51.3666 5.01058 51.3661 5.00795 51.3662 5.00532C51.3664 5.00269 51.3671 5.00013 51.3685 4.99787C51.3698 4.99561 51.3717 4.99372 51.374 4.99237C51.3763 4.99102 51.3788 4.99025 51.3815 4.99013C52.013 4.94143 52.6567 4.93839 53.3126 4.981C53.3308 4.98252 53.3445 4.99165 53.3536 5.00839L54.7095 7.65623C54.7704 7.77645 54.8313 7.77645 54.8921 7.65623Z" fill="#7E7E7E"/>
    <path d="M60.949 10.406C60.8287 10.3984 60.7694 10.4547 60.7709 10.5749L60.7755 12.4056C60.7755 12.5197 60.7184 12.5768 60.6043 12.5768L59.2164 12.5791C59.1008 12.5791 59.043 12.5213 59.043 12.4056L59.0475 5.07839C59.0475 5.01448 59.0802 4.981 59.1457 4.97796C60.2459 4.946 61.2198 4.94752 62.0674 4.98252C63.3305 5.03426 64.0792 5.65133 64.3135 6.83373C64.3927 7.23395 64.4102 7.72091 64.366 8.29461C64.2154 10.212 62.492 10.5019 60.949 10.406ZM60.7663 6.61916L60.7755 8.7557C60.7755 8.78112 60.7856 8.80551 60.8036 8.82349C60.8215 8.84147 60.8459 8.85157 60.8713 8.85157L61.7661 8.84928C61.9889 8.84865 62.2023 8.76221 62.3594 8.60896C62.5165 8.45571 62.6044 8.24821 62.6039 8.03211L62.5993 7.33362C62.599 7.2266 62.577 7.12069 62.5345 7.02193C62.492 6.92317 62.4299 6.8335 62.3517 6.75804C62.2735 6.68258 62.1807 6.6228 62.0787 6.58213C61.9766 6.54146 61.8673 6.5207 61.757 6.52101L60.8622 6.52329C60.8368 6.52329 60.8124 6.53339 60.7944 6.55137C60.7764 6.56935 60.7663 6.59374 60.7663 6.61916Z" fill="#7E7E7E"/>
    <path d="M67.0373 6.54444L65.1929 6.56042C65.1764 6.56073 65.1599 6.55769 65.1445 6.55149C65.1292 6.54529 65.1152 6.53606 65.1035 6.52434C65.0918 6.51262 65.0825 6.49865 65.0763 6.48328C65.0701 6.46791 65.0671 6.45145 65.0674 6.43488L65.0788 5.08128C65.0788 5.04859 65.0918 5.01724 65.1149 4.99412C65.138 4.971 65.1694 4.95802 65.2021 4.95802L70.8493 4.95117C70.882 4.95117 70.9133 4.96416 70.9364 4.98727C70.9596 5.01039 70.9725 5.04174 70.9725 5.07443L70.9817 6.4326C70.9817 6.44878 70.9785 6.46481 70.9723 6.47976C70.9661 6.49472 70.957 6.50831 70.9456 6.51975C70.9341 6.5312 70.9205 6.54028 70.9056 6.54647C70.8906 6.55267 70.8746 6.55586 70.8584 6.55586L69.0209 6.54901C68.9882 6.54901 68.9569 6.56199 68.9337 6.58511C68.9106 6.60822 68.8976 6.63958 68.8976 6.67227L68.9068 12.4519C68.9068 12.4846 68.8938 12.5159 68.8707 12.539C68.8476 12.5621 68.8162 12.5751 68.7835 12.5751L67.2838 12.582C67.2511 12.582 67.2198 12.569 67.1967 12.5459C67.1736 12.5228 67.1606 12.4914 67.1606 12.4587V6.6677C67.1606 6.63501 67.1476 6.60366 67.1245 6.58054C67.1014 6.55743 67.07 6.54444 67.0373 6.54444Z" fill="#7E7E7E"/>
    <path d="M89.7123 10.8117C90.0318 10.5812 90.098 10.1018 90.098 9.73432C90.1056 8.13953 90.1064 6.59267 90.1003 5.09375C90.0988 5.00549 90.1429 4.9606 90.2327 4.95907L91.7803 4.95679C91.7978 4.95648 91.8151 4.95975 91.8313 4.9664C91.8475 4.97306 91.8623 4.98297 91.8746 4.99554C91.887 5.0081 91.8967 5.02307 91.9033 5.03956C91.9098 5.05604 91.913 5.07369 91.9127 5.09147C91.8853 6.31039 91.8876 7.63355 91.9196 9.06095C91.9721 11.3824 91.0156 12.9483 88.3587 12.6743C87.3284 12.5693 86.617 12.1006 86.2244 11.2682C86.0098 10.8132 85.9094 10.0752 85.9231 9.0541C85.9398 7.70887 85.9406 6.388 85.9254 5.09147C85.9254 5.00929 85.9665 4.96744 86.0487 4.96592L87.4958 4.94538C87.5163 4.94477 87.5367 4.94833 87.5558 4.95586C87.5748 4.96338 87.5922 4.97472 87.6069 4.9892C87.6216 5.00367 87.6333 5.02099 87.6413 5.04012C87.6492 5.05926 87.6533 5.07983 87.6533 5.1006C87.6533 6.66952 87.6541 8.2316 87.6556 9.78682C87.6556 10.9418 88.7924 11.4691 89.7123 10.8117Z" fill="#7E7E7E"/>
    <path d="M95.2404 10.1536L95.2427 12.4088C95.2427 12.523 95.1856 12.58 95.0715 12.58H93.6449C93.517 12.58 93.4531 12.5161 93.4531 12.3883L93.4554 5.10444C93.4554 5.01161 93.5018 4.9652 93.5946 4.9652C94.4651 4.95606 95.4261 4.95074 96.4776 4.94922C98.3288 4.94922 99.1369 6.13618 98.9497 7.89152C98.8705 8.64478 98.519 9.20859 97.8951 9.58294C97.8613 9.60362 97.8367 9.63667 97.8265 9.6753C97.8164 9.71393 97.8213 9.7552 97.8403 9.79066L99.2601 12.3472C99.2733 12.3709 99.28 12.3977 99.2796 12.4248C99.2792 12.4519 99.2717 12.4785 99.2578 12.5018C99.244 12.5251 99.2243 12.5444 99.2006 12.5577C99.177 12.5711 99.1503 12.578 99.1232 12.5777L97.523 12.58C97.4792 12.5801 97.4361 12.5678 97.3986 12.5444C97.3611 12.521 97.3307 12.4875 97.3108 12.4476L96.1238 10.0737C96.1052 10.0362 96.0763 10.0047 96.0403 9.98288C96.0044 9.96106 95.9629 9.94981 95.9206 9.95044L95.4413 9.95273C95.3074 9.95273 95.2404 10.0197 95.2404 10.1536ZM95.2359 6.64521L95.2404 8.32522C95.241 8.3569 95.254 8.38709 95.2766 8.40929C95.2993 8.43148 95.3297 8.44392 95.3614 8.44391L96.4137 8.44163C96.5212 8.44138 96.6276 8.41767 96.7268 8.37185C96.826 8.32602 96.916 8.259 96.9917 8.1746C97.0674 8.0902 97.1273 7.9901 97.1679 7.88003C97.2086 7.76996 97.2292 7.65207 97.2286 7.53315V7.41901C97.2273 7.17974 97.1404 6.95071 96.9868 6.78213C96.8332 6.61354 96.6254 6.51916 96.4091 6.51966L95.3568 6.52195C95.3408 6.52194 95.3248 6.52514 95.31 6.53137C95.2952 6.53759 95.2817 6.54671 95.2705 6.55818C95.2592 6.56966 95.2503 6.58326 95.2444 6.59821C95.2384 6.61315 95.2355 6.62913 95.2359 6.64521Z" fill="#7E7E7E"/>
    <path d="M102.208 10.1262L102.211 12.5184C102.211 12.5595 102.191 12.5801 102.151 12.5801L100.549 12.5823C100.508 12.5823 100.487 12.5626 100.487 12.523L100.49 5.09535C100.49 5.00556 100.534 4.96067 100.624 4.96067C101.641 4.95002 102.659 4.95458 103.678 4.97437C105.16 5.00176 105.954 5.97644 105.936 7.37569C105.925 8.3321 105.767 9.03972 104.875 9.57842C104.788 9.63016 104.769 9.70016 104.817 9.78842L106.219 12.345C106.304 12.5032 106.258 12.5816 106.08 12.5801L104.514 12.5778C104.46 12.5777 104.408 12.5625 104.363 12.5338C104.318 12.5051 104.281 12.4642 104.258 12.4157C103.945 11.7492 103.602 11.0507 103.229 10.3203C103.051 9.97179 102.754 9.85081 102.339 9.95733C102.252 9.98016 102.208 10.0365 102.208 10.1262ZM102.211 6.64753L102.206 8.31384C102.206 8.34775 102.22 8.38026 102.244 8.40423C102.268 8.4282 102.3 8.44167 102.334 8.44167L103.404 8.44395C103.502 8.44426 103.598 8.42708 103.689 8.3934C103.779 8.35973 103.861 8.31021 103.93 8.24768C103.999 8.18515 104.054 8.11083 104.091 8.02897C104.129 7.94711 104.148 7.85931 104.149 7.77058V7.19992C104.149 7.02073 104.072 6.84864 103.933 6.7215C103.794 6.59436 103.606 6.5226 103.409 6.52199L102.339 6.5197C102.305 6.5197 102.272 6.53317 102.248 6.55714C102.224 6.58111 102.211 6.61363 102.211 6.64753Z" fill="#7E7E7E"/>
    <path d="M109.227 9.54087L109.229 10.8899C109.229 10.9171 109.24 10.9433 109.259 10.9625C109.278 10.9818 109.304 10.9926 109.332 10.9926H112.144C112.171 10.9926 112.197 11.0034 112.216 11.0227C112.236 11.042 112.246 11.0681 112.246 11.0953L112.249 12.4763C112.249 12.5036 112.238 12.5297 112.219 12.5489C112.199 12.5682 112.173 12.579 112.146 12.579L107.489 12.5745C107.476 12.5745 107.463 12.5718 107.45 12.5666C107.438 12.5615 107.426 12.5539 107.417 12.5444C107.407 12.5348 107.4 12.5235 107.395 12.5111C107.389 12.4986 107.387 12.4852 107.387 12.4718V5.06236C107.387 5.04887 107.389 5.03551 107.395 5.02305C107.4 5.01059 107.407 4.99927 107.417 4.98973C107.426 4.98019 107.438 4.97262 107.45 4.96746C107.463 4.9623 107.476 4.95964 107.489 4.95964L112.137 4.95508C112.164 4.95508 112.19 4.9659 112.209 4.98516C112.229 5.00442 112.24 5.03055 112.24 5.0578L112.244 6.4228C112.244 6.45004 112.233 6.47617 112.214 6.49544C112.195 6.5147 112.169 6.52552 112.141 6.52552L109.329 6.52324C109.316 6.52324 109.302 6.5259 109.29 6.53106C109.277 6.53622 109.266 6.54379 109.257 6.55332C109.247 6.56286 109.239 6.57418 109.234 6.58665C109.229 6.59911 109.227 6.61247 109.227 6.62596L109.229 7.85401C109.229 7.88125 109.24 7.90738 109.259 7.92664C109.278 7.9459 109.304 7.95672 109.332 7.95672L111.778 7.94988C111.792 7.94987 111.806 7.9526 111.818 7.95791C111.831 7.96321 111.842 7.97098 111.852 7.98076C111.862 7.99055 111.869 8.00214 111.874 8.01487C111.879 8.02759 111.882 8.0412 111.881 8.05488L111.863 9.36054C111.863 9.37422 111.86 9.38777 111.855 9.40038C111.85 9.413 111.842 9.42442 111.832 9.43399C111.822 9.44356 111.811 9.45108 111.798 9.4561C111.785 9.46113 111.772 9.46356 111.758 9.46326L109.332 9.43586C109.318 9.43555 109.304 9.43806 109.291 9.44322C109.278 9.44839 109.266 9.45611 109.257 9.46592C109.247 9.47574 109.239 9.48744 109.234 9.50032C109.229 9.5132 109.226 9.52699 109.227 9.54087Z" fill="#7E7E7E"/>
    <path d="M115.292 7.11185L115.326 12.4053C115.328 12.5179 115.272 12.5749 115.16 12.5764L113.852 12.5833C113.738 12.5833 113.681 12.527 113.681 12.4144L113.683 5.05521C113.683 5.04232 113.685 5.02955 113.69 5.01764C113.695 5.00574 113.703 4.99492 113.712 4.9858C113.721 4.97669 113.732 4.96946 113.744 4.96453C113.755 4.95959 113.768 4.95705 113.781 4.95705L115.847 4.95477C115.952 4.95325 116.026 5.00042 116.068 5.09629C116.847 6.81131 117.534 8.54534 118.129 10.2984C118.201 10.5084 118.229 10.5031 118.214 10.2824C118.095 8.55219 118.068 6.81283 118.132 5.06434C118.132 5.03749 118.143 5.01195 118.163 4.99318C118.182 4.9744 118.208 4.9639 118.234 4.9639L119.711 4.94336C119.774 4.94336 119.805 4.97379 119.805 5.03466V12.4212C119.805 12.5232 119.754 12.5749 119.652 12.5764L117.84 12.5787C117.775 12.5794 117.711 12.5614 117.656 12.5271C117.601 12.4927 117.557 12.4433 117.529 12.3847C116.656 10.5632 115.928 8.80251 115.345 7.10272C115.308 6.99467 115.291 6.99772 115.292 7.11185Z" fill="#7E7E7E"/>
    <path d="M130.802 7.67469L132.051 5.22315C132.092 5.14016 132.156 5.07051 132.235 5.0221C132.315 4.97369 132.406 4.94845 132.498 4.94924L133.753 4.95152C133.998 4.95304 134.06 5.05956 133.938 5.27109L131.674 9.24741C131.592 9.39046 131.552 9.54492 131.553 9.71079L131.562 12.4203C131.562 12.5207 131.511 12.5717 131.409 12.5732L129.951 12.5846C129.855 12.5861 129.807 12.5382 129.807 12.4408C129.807 11.5871 129.81 10.7342 129.816 9.88198C129.817 9.62937 129.753 9.38742 129.622 9.15611C128.858 7.81241 128.105 6.48012 127.362 5.15924C127.351 5.13898 127.345 5.1161 127.345 5.09284C127.345 5.06957 127.351 5.0467 127.362 5.02647C127.374 5.00624 127.39 4.98934 127.41 4.9774C127.43 4.96547 127.453 4.95891 127.476 4.95837L129.015 4.94924C129.084 4.94852 129.153 4.9676 129.213 5.00433C129.273 5.04105 129.321 5.09393 129.353 5.15695L130.617 7.67469C130.678 7.79795 130.74 7.79795 130.802 7.67469Z" fill="#7E7E7E"/>
    <path d="M12.5964 18.3367C12.636 18.4417 12.6344 18.5193 12.5918 18.5695C11.9915 19.268 11.1081 20.0784 10.2385 20.4413C9.27062 20.8446 8.42529 20.9846 7.70246 20.8613C6.85332 20.7152 6.24386 20.6589 5.87408 20.6924C4.12407 18.9698 2.34514 17.1954 0.537305 15.3693C0.249695 15.0794 0.0556718 14.9813 0.00317146 14.5202C-0.00454294 14.4538 0.00185454 14.3865 0.0219455 14.3227C0.0420365 14.2589 0.0753677 14.2001 0.119757 14.1501C0.164147 14.1002 0.218595 14.0601 0.279535 14.0326C0.340476 14.0051 0.406536 13.9908 0.473392 13.9906L7.46735 13.9746C7.59603 13.9739 7.72349 13.9987 7.84225 14.0477C7.96102 14.0967 8.06869 14.1689 8.15898 14.26C9.47986 15.5869 10.8 16.9025 12.1193 18.2066C12.235 18.3207 12.394 18.3641 12.5964 18.3367Z" fill="#606060"/>
    <path d="M30.1862 23.4183C30.6747 23.0577 30.2798 22.5167 29.8529 22.3683C28.9627 22.0579 27.8191 21.7246 27.2051 20.9828C26.2144 19.7821 26.9335 18.061 28.2825 17.5611C28.879 17.3405 29.5311 17.2941 30.2387 17.4219C31.1441 17.5878 31.7757 18.1196 32.1333 19.0174C32.143 19.0415 32.1477 19.0673 32.1471 19.0932C32.1464 19.1192 32.1405 19.1447 32.1295 19.1683C32.1186 19.1918 32.103 19.2128 32.0836 19.2301C32.0642 19.2473 32.0415 19.2604 32.0169 19.2685L30.823 19.6703C30.7829 19.6834 30.7396 19.6824 30.7001 19.6674C30.6607 19.6525 30.6275 19.6245 30.6062 19.5881C30.1847 18.8835 29.5958 18.7078 28.8395 19.0608C28.7663 19.0951 28.7021 19.1461 28.6522 19.2097C28.6023 19.2733 28.568 19.3478 28.5521 19.4272C28.5361 19.5066 28.5389 19.5887 28.5603 19.667C28.5816 19.7453 28.621 19.8175 28.6751 19.878C28.806 20.0256 28.968 20.1352 29.1613 20.2067C29.732 20.4182 30.2965 20.6366 30.855 20.8618C32.8066 21.6425 32.5168 24.2857 30.6701 24.9956C29.1065 25.5982 27.0727 25.1988 26.5454 23.3636C26.515 23.2555 26.5523 23.1832 26.6573 23.1467L27.8899 22.713C27.9629 22.6871 28.02 22.7062 28.0611 22.7701C28.1265 22.8675 28.1737 22.9748 28.2026 23.0919C28.2221 23.1683 28.2605 23.2389 28.3144 23.2974C28.7755 23.795 29.6384 23.8201 30.1862 23.4183Z" fill="#7E7E7E"/>
    <path d="M41.2337 22.4748C41.2246 23.8832 43.3314 23.995 43.5437 22.7282C43.5772 22.5349 43.6875 22.4641 43.8747 22.5159L44.9292 22.808C45.1103 22.8583 45.1857 22.9762 45.1552 23.1618C44.8516 25.0176 42.9525 25.5312 41.3364 25.0975C40.1449 24.7779 39.5263 23.7713 39.4715 22.5661C39.4335 21.7169 39.4327 20.9013 39.4692 20.1191C39.5605 18.0739 40.9689 17.2088 42.8338 17.3731C43.9842 17.4736 44.8539 18.2086 45.1187 19.3316C45.1644 19.5264 45.0906 19.6519 44.8973 19.7082L43.8404 20.0095C43.6594 20.0613 43.5422 19.9966 43.4889 19.8155C43.3322 19.2905 43.0164 19.0136 42.5416 18.9846C41.6605 18.9299 41.2238 19.3613 41.2314 20.2789C41.236 20.9591 41.2367 21.6911 41.2337 22.4748Z" fill="#7E7E7E"/>
    <path d="M81.1822 23.4228C81.7681 23.7956 82.3631 23.7903 82.9673 23.4068C83.0089 23.3803 83.0444 23.3455 83.0715 23.3046C83.0987 23.2636 83.1168 23.2176 83.1248 23.1694C83.1917 22.7722 82.9924 22.4968 82.5267 22.3431C81.1526 21.8866 79.6186 21.4415 79.5136 19.7341C79.4497 18.716 80.2235 17.8052 81.1685 17.5131C82.6271 17.0611 84.2661 17.4743 84.8687 18.9808C84.8799 19.0089 84.8853 19.039 84.8846 19.0693C84.8838 19.0995 84.877 19.1293 84.8644 19.1568C84.8518 19.1844 84.8337 19.2091 84.8113 19.2294C84.7889 19.2498 84.7626 19.2654 84.734 19.2752L83.5539 19.6747C83.4687 19.7036 83.3994 19.6815 83.3462 19.6085C83.2366 19.4533 83.1499 19.2501 82.9992 19.136C82.5792 18.8187 81.8168 18.7548 81.4288 19.209C81.1138 19.5788 81.3443 19.9304 81.7141 20.1016C83.2389 20.8023 85.2042 20.9393 84.8847 23.2858C84.6176 25.2352 81.972 25.5776 80.5842 24.9453C79.974 24.6668 79.5433 24.154 79.2922 23.4068C79.2481 23.2774 79.2907 23.1899 79.4201 23.1443L80.623 22.7152C80.7432 22.6725 80.8292 22.7091 80.8809 22.8247C80.9722 23.0302 80.9768 23.2904 81.1822 23.4228Z" fill="#7E7E7E"/>
    <path d="M35.3888 23.5418L38.1599 23.5372C38.1956 23.5372 38.2299 23.5514 38.2551 23.5767C38.2804 23.6019 38.2946 23.6362 38.2946 23.6719L38.2969 24.9593C38.2969 24.995 38.2827 25.0293 38.2574 25.0545C38.2322 25.0798 38.1979 25.094 38.1622 25.094L33.5741 25.0963C33.5384 25.0963 33.5042 25.0821 33.4789 25.0568C33.4536 25.0316 33.4395 24.9973 33.4395 24.9616V17.6298C33.4395 17.5941 33.4536 17.5598 33.4789 17.5346C33.5042 17.5093 33.5384 17.4951 33.5741 17.4951L38.1508 17.4883C38.1865 17.4883 38.2208 17.5025 38.246 17.5277C38.2713 17.553 38.2855 17.5872 38.2855 17.623L38.29 18.9332C38.29 18.9689 38.2758 19.0032 38.2506 19.0284C38.2253 19.0537 38.1911 19.0679 38.1554 19.0679L35.3797 19.0724C35.3618 19.0724 35.3441 19.076 35.3276 19.0829C35.3111 19.0898 35.2962 19.0999 35.2836 19.1127C35.2711 19.1254 35.2612 19.1405 35.2546 19.1571C35.248 19.1737 35.2447 19.1915 35.245 19.2094L35.2656 20.3233C35.2661 20.3586 35.2806 20.3923 35.3058 20.4171C35.331 20.4418 35.3649 20.4557 35.4002 20.4557L37.8175 20.4603C37.8352 20.4603 37.8527 20.4637 37.8691 20.4705C37.8854 20.4773 37.9002 20.4872 37.9128 20.4997C37.9253 20.5122 37.9352 20.5271 37.9419 20.5434C37.9487 20.5597 37.9522 20.5772 37.9522 20.5949L37.959 21.8618C37.959 21.8975 37.9449 21.9318 37.9196 21.957C37.8943 21.9823 37.8601 21.9965 37.8244 21.9965L35.3865 21.9942C35.3508 21.9942 35.3166 22.0084 35.2913 22.0336C35.266 22.0589 35.2519 22.0931 35.2519 22.1289L35.2541 23.4071C35.2541 23.4428 35.2683 23.4771 35.2936 23.5024C35.3188 23.5276 35.3531 23.5418 35.3888 23.5418Z" fill="#7E7E7E"/>
    <path d="M49.0112 23.5806C49.9745 23.6514 50.4516 23.309 50.4516 22.3137C50.4485 20.722 50.4477 19.1531 50.4493 17.607C50.4493 17.5773 50.4608 17.5489 50.4814 17.5279C50.5019 17.5069 50.5298 17.4951 50.5588 17.4951H52.1065C52.1795 17.4951 52.216 17.5316 52.216 17.6047C52.2328 19.3775 52.2312 21.021 52.2115 22.5352C52.2023 23.3463 51.9261 24.009 51.3829 24.5233C50.4858 25.3725 48.7053 25.4295 47.6508 24.9182C46.7742 24.4921 46.3337 23.7031 46.3291 22.5511C46.3246 21.1268 46.3177 19.4909 46.3086 17.6435C46.3086 17.6035 46.3242 17.5652 46.352 17.537C46.3799 17.5087 46.4176 17.4928 46.457 17.4928L47.9247 17.4883C47.9417 17.4883 47.9585 17.4917 47.9741 17.4982C47.9898 17.5048 48.004 17.5144 48.0159 17.5265C48.0278 17.5386 48.0372 17.553 48.0434 17.5688C48.0497 17.5845 48.0528 17.6014 48.0525 17.6184C48.0434 19.2436 48.0449 20.8635 48.0571 22.4781C48.0616 23.0465 48.4086 23.5372 49.0112 23.5806Z" fill="#7E7E7E"/>
    <path d="M55.6349 22.6225L55.6303 25.0284C55.6303 25.0679 55.6113 25.0877 55.5733 25.0877L53.9366 25.1014C53.9277 25.1014 53.9187 25.0996 53.9104 25.0962C53.9021 25.0928 53.8946 25.0877 53.8882 25.0814C53.8819 25.075 53.8768 25.0674 53.8734 25.0591C53.8699 25.0508 53.8682 25.0419 53.8682 25.0329V17.6144C53.8682 17.5353 53.9077 17.4957 53.9869 17.4957C55.0612 17.4866 56.0968 17.4889 57.0935 17.5026C58.075 17.514 58.9675 18.0915 59.2163 19.0799C59.4811 20.123 59.3236 21.5839 58.2462 22.1066C58.1625 22.1477 58.1428 22.2093 58.1869 22.2915L59.5702 24.8389C59.666 25.0139 59.6143 25.1014 59.4149 25.1014H57.8582C57.7715 25.1014 57.7083 25.0626 57.6687 24.985L56.5183 22.6818C56.462 22.5677 56.3707 22.5099 56.2444 22.5084L55.7536 22.5038C55.6745 22.5023 55.6349 22.5418 55.6349 22.6225ZM55.6349 19.1552L55.6303 20.8854C55.6303 20.9114 55.6407 20.9364 55.6591 20.9548C55.6775 20.9732 55.7025 20.9836 55.7285 20.9836L56.7351 20.9858C56.8431 20.9861 56.95 20.9664 57.0498 20.9278C57.1496 20.8892 57.2404 20.8325 57.3169 20.7608C57.3934 20.6892 57.4542 20.604 57.4957 20.5103C57.5373 20.4165 57.5589 20.3159 57.5592 20.2143V19.8354C57.5598 19.6302 57.4738 19.4331 57.3201 19.2876C57.1664 19.142 56.9576 19.0599 56.7397 19.0593L55.7331 19.057C55.707 19.057 55.6821 19.0674 55.6637 19.0858C55.6453 19.1042 55.6349 19.1291 55.6349 19.1552Z" fill="#7E7E7E"/>
    <path d="M62.4488 17.4922H60.924C60.8635 17.4922 60.8145 17.5412 60.8145 17.6018V24.9883C60.8145 25.0488 60.8635 25.0979 60.924 25.0979H62.4488C62.5093 25.0979 62.5584 25.0488 62.5584 24.9883V17.6018C62.5584 17.5412 62.5093 17.4922 62.4488 17.4922Z" fill="#7E7E7E"/>
    <path d="M65.6535 19.0904L63.8365 19.1041C63.8199 19.1044 63.8035 19.1013 63.7881 19.0951C63.7727 19.0889 63.7588 19.0797 63.747 19.068C63.7353 19.0562 63.7261 19.0423 63.7199 19.0269C63.7137 19.0115 63.7106 18.9951 63.711 18.9785L63.7247 17.6135C63.7247 17.5808 63.7376 17.5495 63.7608 17.5263C63.7839 17.5032 63.8152 17.4902 63.8479 17.4902L69.4381 17.4925C69.4704 17.4925 69.5014 17.5052 69.5244 17.5278C69.5475 17.5504 69.5607 17.5812 69.5613 17.6135L69.5727 18.9694C69.573 18.9858 69.5701 19.002 69.564 19.0172C69.558 19.0325 69.5489 19.0463 69.5374 19.058C69.526 19.0697 69.5123 19.079 69.4972 19.0853C69.4821 19.0917 69.4659 19.0949 69.4495 19.0949H67.6371C67.6044 19.0949 67.573 19.1079 67.5499 19.131C67.5268 19.1541 67.5138 19.1855 67.5138 19.2182L67.5115 24.9681C67.5115 24.9843 67.5083 25.0003 67.5021 25.0153C67.4959 25.0302 67.4869 25.0438 67.4754 25.0553C67.464 25.0667 67.4504 25.0758 67.4354 25.082C67.4205 25.0882 67.4045 25.0914 67.3883 25.0914L65.8954 25.1028C65.8792 25.1028 65.8632 25.0996 65.8483 25.0934C65.8333 25.0872 65.8197 25.0781 65.8083 25.0667C65.7968 25.0552 65.7877 25.0416 65.7815 25.0267C65.7754 25.0117 65.7722 24.9957 65.7722 24.9795L65.7767 19.2136C65.7767 19.1974 65.7735 19.1814 65.7674 19.1664C65.7612 19.1515 65.7521 19.1379 65.7406 19.1265C65.7292 19.115 65.7156 19.1059 65.7006 19.0997C65.6857 19.0935 65.6697 19.0904 65.6535 19.0904Z" fill="#7E7E7E"/>
    <path d="M73.2254 20.239C73.2756 20.3364 73.3251 20.3364 73.3738 20.239L74.6863 17.646C74.7319 17.5532 74.8065 17.5022 74.91 17.493C75.7622 17.423 76.326 17.4451 76.6014 17.5592C76.6395 17.5745 76.6486 17.5996 76.6288 17.6346C75.804 19.0787 75.0059 20.481 74.2343 21.8414C74.1685 21.9581 74.1339 22.0894 74.1339 22.2226L74.1316 25.0257C74.1316 25.0683 74.1095 25.0904 74.0654 25.0919L72.5132 25.101C72.4478 25.101 72.4151 25.0683 72.4151 25.0029V22.2797C72.4151 22.1391 72.3789 22.0015 72.3101 21.8802L69.9727 17.7464C69.9571 17.7193 69.949 17.6887 69.9492 17.6574C69.9494 17.6262 69.9579 17.5955 69.9739 17.5685C69.9898 17.5414 70.0127 17.519 70.0401 17.5033C70.0675 17.4877 70.0986 17.4794 70.1302 17.4793L71.6595 17.4885C71.7104 17.4885 71.7602 17.5027 71.8034 17.5293C71.8465 17.5559 71.8813 17.5939 71.9038 17.6391L73.2254 20.239Z" fill="#7E7E7E"/>
    <path d="M87.5395 19.0858L85.7271 19.104C85.7106 19.1044 85.6941 19.1013 85.6787 19.0951C85.6634 19.0889 85.6494 19.0797 85.6377 19.068C85.6259 19.0562 85.6167 19.0423 85.6105 19.0269C85.6043 19.0115 85.6013 18.9951 85.6016 18.9785L85.6084 17.6181C85.6084 17.5854 85.6214 17.554 85.6445 17.5309C85.6677 17.5078 85.699 17.4948 85.7317 17.4948L91.3584 17.4902C91.391 17.4902 91.4224 17.5032 91.4455 17.5263C91.4686 17.5495 91.4816 17.5808 91.4816 17.6135L91.4953 18.9717C91.4956 18.9882 91.4926 19.0047 91.4864 19.0201C91.4802 19.0354 91.471 19.0494 91.4592 19.0611C91.4475 19.0728 91.4336 19.0821 91.4182 19.0883C91.4028 19.0945 91.3863 19.0975 91.3698 19.0972L89.5802 19.0949C89.5475 19.0949 89.5162 19.1079 89.493 19.131C89.4699 19.1541 89.4569 19.1855 89.4569 19.2182L89.4615 24.9681C89.4615 25.0004 89.4488 25.0314 89.4262 25.0545C89.4036 25.0775 89.3728 25.0908 89.3405 25.0914L87.7883 25.1073C87.772 25.1077 87.7557 25.1047 87.7405 25.0986C87.7253 25.0926 87.7114 25.0835 87.6997 25.0721C87.688 25.0606 87.6787 25.0469 87.6724 25.0318C87.6661 25.0167 87.6628 25.0005 87.6628 24.9841V19.209C87.6628 19.1764 87.6498 19.145 87.6267 19.1219C87.6036 19.0988 87.5722 19.0858 87.5395 19.0858Z" fill="#7E7E7E"/>
    <path d="M93.4108 23.5715L93 24.9958C92.9926 25.0218 92.9771 25.0447 92.9557 25.0611C92.9343 25.0776 92.9082 25.0867 92.8813 25.0871L91.3998 25.1054C91.3802 25.1055 91.3607 25.101 91.3431 25.0923C91.3255 25.0835 91.3102 25.0707 91.2984 25.055C91.2866 25.0392 91.2787 25.0209 91.2753 25.0015C91.2719 24.9821 91.2731 24.9622 91.2789 24.9433L93.5113 17.5956C93.519 17.57 93.5347 17.5477 93.5561 17.5316C93.5774 17.5156 93.6033 17.5068 93.63 17.5065L95.6273 17.4883C95.6543 17.4881 95.6807 17.4967 95.7025 17.5127C95.7243 17.5287 95.7404 17.5514 95.7482 17.5773L98.0446 24.941C98.0503 24.9599 98.0515 24.9798 98.0481 24.9992C98.0447 25.0186 98.0368 25.0369 98.0251 25.0527C98.0133 25.0684 97.998 25.0812 97.9803 25.09C97.9627 25.0988 97.9433 25.1032 97.9236 25.1031L96.3668 25.0894C96.3398 25.0896 96.3134 25.081 96.2916 25.065C96.2698 25.0489 96.2537 25.0263 96.2459 25.0004L95.8281 23.5806C95.8203 23.5547 95.8042 23.532 95.7824 23.516C95.7606 23.5 95.7342 23.4914 95.7072 23.4916L93.5341 23.4802C93.5063 23.4796 93.4792 23.4883 93.4569 23.5048C93.4346 23.5213 93.4184 23.5448 93.4108 23.5715ZM93.9724 21.5856C93.8871 21.7865 93.9533 21.8869 94.1709 21.8869L95.157 21.8846C95.2499 21.8831 95.2849 21.8374 95.262 21.7477L94.6686 19.4491C94.6533 19.3928 94.6176 19.3737 94.5613 19.392C94.5217 19.4057 94.5004 19.4346 94.4974 19.4787C94.4487 20.1666 94.2737 20.8688 93.9724 21.5856Z" fill="#7E7E7E"/>
    <path d="M100.779 19.8097C100.709 19.6164 100.675 19.6225 100.677 19.828L100.697 25.0141C100.697 25.0254 100.696 25.0366 100.691 25.0471C100.687 25.0576 100.681 25.0672 100.673 25.0753C100.665 25.0834 100.656 25.0898 100.646 25.0942C100.635 25.0986 100.624 25.1008 100.613 25.1008L99.1336 25.1054C99.0849 25.1054 99.0605 25.081 99.0605 25.0323L99.0628 17.664C99.0628 17.5499 99.1191 17.4928 99.2317 17.4928L101.268 17.4883C101.37 17.4883 101.439 17.5355 101.476 17.6298L103.557 22.889C103.583 22.9544 103.594 22.9521 103.589 22.8821C103.469 21.1732 103.441 19.4171 103.505 17.6138C103.508 17.5347 103.55 17.4951 103.63 17.4951L105.059 17.4906C105.089 17.4906 105.117 17.5026 105.138 17.524C105.159 17.5454 105.171 17.5744 105.171 17.6047V24.9707C105.171 25.0514 105.131 25.0917 105.05 25.0917L103.124 25.1008C103.066 25.1008 103.01 25.0838 102.961 25.0517C102.913 25.0197 102.875 24.9741 102.852 24.9205C102.284 23.5859 101.736 22.3122 101.206 21.0994C101.026 20.684 100.93 20.2343 100.779 19.8097Z" fill="#7E7E7E"/>
    <path d="M106.862 17.5783C106.862 17.567 106.864 17.5558 106.868 17.5453C106.872 17.5348 106.878 17.5252 106.886 17.5171C106.894 17.509 106.904 17.5026 106.914 17.4982C106.924 17.4938 106.936 17.4916 106.947 17.4916L109.875 17.4824C110.252 17.4812 110.625 17.5531 110.973 17.694C111.322 17.8349 111.638 18.042 111.905 18.3036C112.172 18.5652 112.385 18.876 112.53 19.2184C112.675 19.5608 112.75 19.9281 112.751 20.2992L112.758 22.2622C112.761 23.0113 112.461 23.7307 111.926 24.2623C111.39 24.7939 110.663 25.0942 109.903 25.0973L106.974 25.1064C106.963 25.1064 106.952 25.1042 106.942 25.1C106.932 25.0957 106.922 25.0895 106.914 25.0817C106.907 25.0738 106.9 25.0645 106.896 25.0543C106.892 25.044 106.89 25.033 106.89 25.0219L106.862 17.5783ZM108.625 19.2172L108.611 23.3762C108.611 23.4095 108.624 23.4414 108.648 23.4649C108.671 23.4885 108.703 23.5017 108.736 23.5017L109.677 23.5063C109.848 23.5069 110.018 23.4746 110.176 23.4111C110.334 23.3477 110.478 23.2543 110.6 23.1365C110.721 23.0186 110.818 22.8786 110.884 22.7242C110.95 22.5699 110.984 22.4044 110.985 22.2371L110.989 20.3745C110.99 20.0367 110.854 19.7123 110.611 19.4726C110.367 19.2329 110.036 19.0975 109.691 19.0963L108.75 19.0917C108.734 19.0917 108.717 19.0949 108.702 19.1012C108.687 19.1076 108.673 19.1168 108.661 19.1285C108.65 19.1401 108.64 19.154 108.634 19.1692C108.628 19.1844 108.625 19.2007 108.625 19.2172Z" fill="#7E7E7E"/>
    <path d="M117.843 23.4795L115.631 23.4864C115.603 23.4864 115.577 23.4957 115.555 23.5126C115.533 23.5295 115.517 23.5532 115.51 23.5799L115.138 24.9997C115.131 25.0265 115.115 25.0502 115.094 25.0671C115.072 25.084 115.045 25.0932 115.017 25.0933L113.513 25.1047C113.493 25.105 113.473 25.1005 113.455 25.0916C113.437 25.0827 113.422 25.0697 113.41 25.0536C113.398 25.0376 113.391 25.0189 113.387 24.9992C113.384 24.9795 113.386 24.9594 113.392 24.9404L115.643 17.5858C115.65 17.5599 115.666 17.5372 115.688 17.5212C115.71 17.5051 115.736 17.4966 115.764 17.4968L117.754 17.4922C117.781 17.492 117.807 17.5006 117.829 17.5166C117.851 17.5327 117.867 17.5553 117.875 17.5812L120.162 24.9404C120.168 24.9592 120.169 24.9791 120.166 24.9985C120.162 25.0179 120.154 25.0362 120.143 25.052C120.131 25.0678 120.116 25.0806 120.098 25.0893C120.08 25.0981 120.061 25.1026 120.041 25.1024L118.471 25.0865C118.443 25.0865 118.417 25.0776 118.395 25.0611C118.373 25.0447 118.357 25.0215 118.35 24.9952L117.964 23.5731C117.957 23.5463 117.941 23.5227 117.919 23.5058C117.898 23.4888 117.871 23.4796 117.843 23.4795ZM116.204 21.327C116.157 21.464 116.125 21.6024 116.108 21.7424C116.096 21.8398 116.139 21.8885 116.236 21.8885L117.311 21.884C117.41 21.8824 117.443 21.8353 117.409 21.7424C117.133 21.0006 117.028 20.2245 116.788 19.4826C116.732 19.3092 116.69 19.313 116.663 19.494C116.572 20.0967 116.419 20.7076 116.204 21.327Z" fill="#7E7E7E"/>
    <path d="M122.911 22.6805L122.945 24.9791C122.947 25.046 122.914 25.0795 122.847 25.0795L121.281 25.1023C121.199 25.1039 121.158 25.0635 121.158 24.9814L121.153 17.6542C121.153 17.6323 121.157 17.6106 121.165 17.5904C121.174 17.5701 121.186 17.5518 121.202 17.5364C121.217 17.5211 121.236 17.509 121.256 17.501C121.276 17.493 121.298 17.4892 121.32 17.4898C122.07 17.5035 122.865 17.4974 123.705 17.4715C125.114 17.4305 126.385 17.8322 126.602 19.4049C126.75 20.4732 126.549 21.6236 125.534 22.1395C125.52 22.1461 125.508 22.1554 125.499 22.167C125.489 22.1785 125.482 22.1919 125.477 22.2065C125.473 22.2211 125.472 22.2364 125.474 22.2516C125.475 22.2668 125.48 22.2814 125.488 22.2947C126.019 23.2123 126.517 24.1315 126.981 25.0521C126.982 25.0541 126.982 25.0563 126.982 25.0586C126.982 25.0609 126.981 25.0632 126.98 25.0652C126.979 25.0672 126.977 25.069 126.975 25.0703C126.972 25.0716 126.97 25.0724 126.967 25.0727C126.319 25.1138 125.691 25.1183 125.084 25.0864C125.068 25.0857 125.052 25.0806 125.039 25.0718C125.025 25.063 125.014 25.0507 125.006 25.0362L123.813 22.6371C123.771 22.5534 123.705 22.5116 123.612 22.5116L123.089 22.5047C122.969 22.5032 122.909 22.5618 122.911 22.6805ZM122.918 19.2314L122.931 20.8247C122.932 20.8463 122.936 20.8676 122.945 20.8874C122.953 20.9073 122.966 20.9252 122.981 20.9403C122.997 20.9553 123.015 20.9672 123.035 20.9751C123.055 20.9831 123.077 20.9871 123.098 20.9868L124.059 20.9776C124.276 20.9758 124.484 20.8887 124.637 20.7354C124.789 20.5822 124.874 20.3754 124.872 20.1605L124.867 19.8592C124.866 19.7527 124.844 19.6475 124.802 19.5496C124.76 19.4516 124.699 19.3628 124.622 19.2881C124.546 19.2135 124.455 19.1546 124.355 19.1147C124.255 19.0748 124.148 19.0548 124.041 19.0557L123.08 19.0648C123.058 19.0651 123.037 19.0697 123.017 19.0782C122.997 19.0867 122.979 19.0991 122.964 19.1146C122.949 19.13 122.937 19.1483 122.929 19.1684C122.921 19.1884 122.917 19.2099 122.918 19.2314Z" fill="#7E7E7E"/>
    <path d="M128.111 17.608C128.111 17.5759 128.124 17.5451 128.147 17.5224C128.169 17.4997 128.2 17.487 128.232 17.487L131.147 17.4824C131.521 17.4818 131.891 17.5519 132.236 17.6888C132.581 17.8256 132.895 18.0266 133.16 18.2801C133.424 18.5336 133.634 18.8347 133.778 19.1663C133.921 19.4978 133.995 19.8533 133.996 20.2124L134 22.3581C134.002 23.0833 133.703 23.7793 133.171 24.293C132.638 24.8067 131.915 25.096 131.161 25.0973L128.246 25.1018C128.23 25.1018 128.214 25.0987 128.2 25.0926C128.185 25.0865 128.172 25.0776 128.16 25.0664C128.149 25.0552 128.14 25.0418 128.134 25.0271C128.128 25.0125 128.125 24.9967 128.125 24.9808L128.111 17.608ZM129.889 19.1944L129.867 23.3944C129.866 23.4081 129.869 23.4217 129.874 23.4344C129.879 23.4472 129.886 23.4588 129.896 23.4685C129.906 23.4783 129.917 23.4861 129.93 23.4914C129.942 23.4967 129.956 23.4994 129.969 23.4994L130.962 23.504C131.127 23.5049 131.291 23.4752 131.443 23.4165C131.596 23.3578 131.735 23.2713 131.852 23.162C131.969 23.0526 132.063 22.9225 132.127 22.7791C132.19 22.6357 132.224 22.4818 132.225 22.3262L132.234 20.2901C132.235 19.9759 132.105 19.6739 131.871 19.4505C131.637 19.227 131.318 19.1004 130.985 19.0985L129.992 19.094C129.965 19.094 129.94 19.1045 129.92 19.1232C129.901 19.142 129.89 19.1675 129.889 19.1944Z" fill="#7E7E7E"/>
</svg>
