<svg width="35" height="36" viewBox="0 0 35 36" fill="none" xmlns="http://www.w3.org/2000/svg">
    <path d="M17.1119 5.3457C23.8093 5.35208 29.2331 10.8051 29.2268 17.5255C29.2204 24.2459 23.786 29.6883 17.0885 29.6819C10.3996 29.6755 4.97858 24.2352 4.97364 17.5226C4.96728 10.8037 10.3897 5.35208 17.0857 5.3457C17.0942 5.3457 17.1027 5.3457 17.1119 5.3457ZM13.0352 23.7618C15.6644 22.824 18.536 22.8233 21.1659 23.7603L21.5439 22.3335C21.7183 22.3335 21.878 22.3292 22.0391 22.3349C22.2051 22.3214 22.3718 22.3306 22.535 22.3639C22.4212 22.9558 22.2778 23.542 22.104 24.119C22.5519 24.3671 22.9969 24.5918 23.4201 24.8526C23.8432 25.1128 24.2438 25.4062 24.6528 25.6848C29.5694 21.1639 29.2628 13.4745 24.6337 9.33215C23.8524 9.94883 23.0012 10.4712 22.0977 10.8873C22.2693 11.4976 22.4332 12.0824 22.5413 12.6856H21.5347C21.4732 12.4425 21.4174 12.21 21.356 11.9796C21.303 11.7386 21.233 11.5026 21.1454 11.2722C18.5218 12.205 15.6581 12.2036 13.0352 11.268L12.6558 12.6991C12.4813 12.6991 12.3203 12.6998 12.1599 12.6991C11.996 12.6977 11.8322 12.6948 11.6372 12.692L12.0942 10.8824C11.1929 10.4677 10.3445 9.9467 9.56671 9.3286C4.68119 13.7992 4.88675 21.4878 9.56671 25.6947C10.3501 25.0773 11.2027 24.5542 12.1069 24.1367C11.9254 23.5463 11.7749 22.9459 11.657 22.3398H12.6608L13.0352 23.7618ZM20.8177 10.3224C20.812 10.2827 20.8035 10.2437 20.7929 10.2047C20.485 9.37184 20.0625 8.58646 19.5391 7.87055C19.2021 7.40059 18.7769 7.00082 18.2873 6.69389C17.6042 6.24946 16.7318 6.22536 16.0254 6.63152C15.5712 6.8874 15.1706 7.22906 14.8464 7.63805C14.3251 8.2845 13.9005 9.00396 13.5848 9.77304C13.5106 9.94528 13.4428 10.1204 13.3637 10.3146C15.7732 11.1822 18.4074 11.185 20.8177 10.3224ZM13.3757 24.7052C13.3926 24.7633 13.3997 24.7973 13.4117 24.8285C13.6992 25.6012 14.0835 26.3334 14.5554 27.0089C14.8641 27.4547 15.242 27.8488 15.675 28.1749C16.5842 28.8405 17.5703 28.849 18.4886 28.2004C18.803 27.975 19.087 27.7092 19.3335 27.4108C19.9608 26.6318 20.4553 25.7536 20.7965 24.8122C20.8064 24.7761 20.8127 24.7392 20.8163 24.7024C18.4095 23.8433 15.7817 23.8447 13.3757 24.7052ZM19.9368 28.2848C21.3616 27.9247 22.6974 27.2733 23.8588 26.3702C23.2209 25.8726 22.5286 25.4495 21.796 25.1085C21.5177 25.6777 21.262 26.2327 20.978 26.7728C20.6849 27.3116 20.3359 27.8184 19.9368 28.2848ZM14.2749 28.289C13.8723 27.8283 13.5212 27.3236 13.2287 26.7849C12.9391 26.2405 12.6841 25.6784 12.4058 25.1078C11.6725 25.4495 10.9795 25.8726 10.3416 26.3702C11.5072 27.274 12.8459 27.9275 14.2749 28.289ZM21.7593 9.91481C22.2955 9.73335 23.6405 8.89693 23.8277 8.63041C22.6713 7.73729 21.3439 7.09296 19.9283 6.73713C20.7456 7.67633 21.3058 8.75729 21.7593 9.91481ZM14.2551 6.74493C12.8381 7.10218 11.5093 7.75005 10.3529 8.64671C10.7683 9.03444 12.054 9.80848 12.4467 9.9063C12.8678 8.758 13.4788 7.68909 14.2551 6.74493Z" fill="#7E7E7E"/>
    <path d="M23.5619 33.0631C23.564 33.4317 23.4856 33.796 23.3323 34.1313C23.0434 34.7784 22.4147 35.2052 21.709 35.2335C21.4568 35.2569 21.2025 35.2363 20.958 35.1718C20.3307 35.0152 19.8313 34.5396 19.6413 33.9193C19.4506 33.3615 19.4477 32.7561 19.6328 32.1969C19.8624 31.4384 20.5384 30.904 21.3268 30.8579C21.7485 30.8118 22.1745 30.8969 22.5468 31.101C23.0441 31.3824 23.3895 31.8722 23.4884 32.4365C23.5294 32.6413 23.5385 32.854 23.5619 33.0631ZM20.9326 33.0397L20.9679 33.0425C20.9679 33.2041 20.9573 33.3665 20.97 33.5274C20.9722 33.8095 21.0322 34.0873 21.1459 34.3453C21.2109 34.4907 21.3536 34.5856 21.5119 34.5899C21.6786 34.6012 21.8347 34.5055 21.9011 34.3517C21.9576 34.239 21.9986 34.1192 22.0226 33.9952C22.118 33.4331 22.1286 32.8596 22.0537 32.2947C22.029 32.1147 21.9816 31.9375 21.9138 31.7688C21.8615 31.6093 21.7118 31.5022 21.5444 31.5051C21.3706 31.4987 21.2116 31.6001 21.1431 31.7595C21.0958 31.846 21.0633 31.9396 21.047 32.0367C21.0018 32.3705 20.9693 32.7051 20.9326 33.0397Z" fill="#7E7E7E"/>
    <path d="M19.1124 33.061C19.1357 33.4353 19.0623 33.8089 18.8998 34.1463C18.5989 34.8048 17.9454 35.2286 17.2242 35.2357C16.9014 35.2598 16.5771 35.2081 16.2769 35.0855C15.7683 34.8756 15.3798 34.4496 15.2166 33.923C15.0287 33.3722 15.023 32.7754 15.1996 32.2204C15.4271 31.4286 16.1399 30.8764 16.9607 30.8552C17.6028 30.8233 18.1665 30.9998 18.6045 31.4974C18.9047 31.8468 19.0821 32.2849 19.1096 32.7456C19.1195 32.8491 19.1124 32.9554 19.1124 33.061ZM17.6883 33.0993C17.6692 32.8016 17.6685 32.5748 17.6367 32.3536C17.6099 32.1594 17.5633 31.968 17.4976 31.7837C17.4474 31.615 17.2913 31.5002 17.1161 31.5016C16.9339 31.4938 16.7679 31.608 16.7092 31.7816C16.6449 31.922 16.6033 32.0722 16.5863 32.2253C16.5602 32.6804 16.5446 33.1376 16.551 33.5934C16.546 33.8549 16.6054 34.1144 16.7227 34.3483C16.8145 34.5567 17.0575 34.6509 17.2659 34.5588C17.3528 34.5198 17.4241 34.4525 17.4672 34.3667C17.5343 34.2512 17.5788 34.1243 17.5979 33.9917C17.641 33.6713 17.6636 33.3495 17.6869 33.0993H17.6883Z" fill="#7E7E7E"/>
    <path d="M7.16694 31.8417C7.19025 31.8517 7.21497 31.8587 7.2397 31.8644C7.48411 31.8609 7.68544 32.0572 7.68897 32.3025C7.68897 32.3174 7.68897 32.3322 7.68756 32.3464C7.70805 32.6335 7.51308 32.8908 7.23263 32.9482C7.13586 32.9645 7.03696 32.9695 6.93877 32.9631C6.62936 32.956 6.37576 32.715 6.35104 32.4053C6.29382 32.0062 6.44075 31.6057 6.74168 31.3385C7.05956 31.0549 7.46363 30.8877 7.88818 30.8636C8.40033 30.7927 8.92166 30.8962 9.36881 31.157C9.86259 31.4405 10.1042 32.0225 9.95654 32.574C9.88449 32.8582 9.69871 33.0999 9.44299 33.2417C9.15124 33.4118 8.83901 33.5429 8.51406 33.6337C8.27953 33.706 8.04147 33.7697 7.81189 33.8562C7.59643 33.9172 7.41136 34.0575 7.29339 34.2489C7.3393 34.2376 7.38451 34.2241 7.42901 34.2078C7.80694 34.0292 8.23573 33.9902 8.6398 34.0979C8.76837 34.1334 8.89905 34.1617 9.03044 34.1837C9.31513 34.2262 9.42886 34.132 9.46276 33.8385C9.46771 33.7967 9.46983 33.7549 9.47619 33.6861C9.69447 33.6712 9.91345 33.6719 10.1317 33.6889C10.1572 34.0724 10.1572 34.4403 9.96997 34.7819C9.79548 35.1016 9.49455 35.2044 9.16042 35.2335C8.83759 35.2547 8.51335 35.2158 8.20465 35.1179C8.00262 35.0598 7.80129 34.9946 7.59573 34.9521C7.39299 34.9102 7.18319 34.884 7.05674 35.108H6.35951C6.32914 34.789 6.38847 34.4672 6.53258 34.1809C6.71342 33.852 6.97479 33.5748 7.29197 33.3756C7.52862 33.2119 7.77727 33.0652 8.01887 32.9092C8.10858 32.8539 8.19547 32.7937 8.27812 32.7285C8.45896 32.5874 8.55998 32.367 8.54938 32.1373C8.55362 31.9268 8.42929 31.7347 8.23573 31.6525C7.87617 31.4845 7.44879 31.5596 7.16694 31.8417Z" fill="#7E7E7E"/>
    <path d="M11.6896 30.9724C11.6981 31.1078 11.7044 31.2155 11.7122 31.3502C11.7397 31.3282 11.7666 31.3034 11.7906 31.2772C12.0506 30.9206 12.4136 30.837 12.8191 30.9079C13.024 30.9532 13.226 31.0121 13.4238 31.083C13.5439 31.1198 13.6633 31.1616 13.782 31.2035C13.8801 31.2432 13.9918 31.2198 14.0666 31.1453L14.1373 30.9809H14.6685C14.7059 31.0971 14.7003 31.2226 14.6523 31.3346C14.5286 31.6174 14.4064 31.9017 14.2623 32.1739C14.0779 32.5212 13.866 32.8543 13.6774 33.1995C13.409 33.7212 13.267 34.2982 13.2613 34.8851C13.2585 34.9539 13.2543 35.0226 13.25 35.1034H11.8916C11.8584 34.9454 11.8535 34.7823 11.8768 34.6221C11.917 34.0182 12.1777 33.4505 12.61 33.028C12.8954 32.7466 13.1921 32.4772 13.4824 32.2015C13.5474 32.1391 13.6075 32.0718 13.7057 31.9697C13.6223 31.9888 13.587 31.9931 13.5538 32.0044C13.2635 32.0916 12.9562 32.1044 12.6595 32.0427C12.5012 32.0122 12.3416 31.9903 12.1812 31.9782C11.9608 31.9513 11.7609 32.1086 11.7341 32.3298C11.7341 32.3319 11.7334 32.334 11.7334 32.3355C11.7136 32.439 11.7009 32.5432 11.6952 32.6488C11.6889 32.7168 11.6889 32.7863 11.6846 32.8657H10.957V30.9809C11.0778 30.9781 11.1944 30.9738 11.3109 30.9717C11.4282 30.9717 11.5483 30.9724 11.6896 30.9724Z" fill="#7E7E7E"/>
    <path d="M24.654 31.51C25.0447 31.4476 25.4332 31.3888 25.6317 30.9805H26.6857C26.6892 31.0584 26.6941 31.1329 26.6948 31.208C26.6955 32.1649 26.6955 33.1225 26.6948 34.0795C26.6948 34.1291 26.6934 34.178 26.6948 34.2276C26.7019 34.4431 26.7683 34.5147 26.9873 34.5282C27.0911 34.5345 27.1957 34.5296 27.3108 34.5296C27.3334 34.7132 27.3391 34.8982 27.3285 35.0825C27.1611 35.1243 25.003 35.1384 24.6576 35.1016V34.5551C24.8511 34.4927 25.0758 34.5863 25.2947 34.4424C25.323 34.3672 25.3414 34.2893 25.3498 34.2099C25.3555 33.5415 25.3534 32.8723 25.3527 32.2039C25.3484 32.1692 25.3414 32.1351 25.3308 32.1018H24.6533L24.654 31.51Z" fill="#7E7E7E"/>
    <path d="M16.9722 0.242188L17.2816 1.50886L17.3268 1.50815L17.6694 0.262035H18.5157V2.41545H17.9908V0.890765C17.8001 1.3834 17.685 1.89659 17.5288 2.40836H17.0457L16.672 0.858868L16.6275 0.860285C16.6253 0.985748 16.6225 1.11121 16.6211 1.23667C16.6197 1.36214 16.619 1.49043 16.6176 1.61731C16.6162 1.75128 16.6183 1.88525 16.6126 2.01922C16.607 2.14397 16.5928 2.26873 16.5808 2.41262L16.1139 2.3871C16.068 2.23328 16.0694 0.566831 16.1146 0.242188H16.9722Z" fill="#7E7E7E"/>
    <path d="M27.9227 7.01464L27.4636 6.60211L27.6508 5.20075L27.614 5.18516L26.8412 6.03434L26.3877 5.61471L27.8471 4L28.2999 4.42388L28.1057 5.82736L28.1403 5.8465L28.9223 4.99023L29.3829 5.40419L27.9227 7.01464Z" fill="#7E7E7E"/>
    <path d="M7.94849 4.25581L7.28023 3.34284L7.77471 2.9707L9.06391 4.72009L8.56801 5.09435L7.18627 4.61306C7.42222 4.97101 7.6631 5.26589 7.89056 5.59124L7.39678 5.96125L6.10547 4.21186L6.60137 3.84327L7.91246 4.29905L7.94849 4.25581Z" fill="#7E7E7E"/>
    <path d="M33.0003 18.3494C32.7531 18.6294 32.5319 18.7669 32.0205 18.954V18.2388L32.7078 17.8858C32.8152 17.8475 32.8979 17.7589 32.9297 17.6484C32.9332 17.6058 32.9339 17.5633 32.9304 17.5201H32.0742C32.0516 17.2989 32.0509 17.0763 32.0714 16.8552C32.794 16.8297 33.5033 16.9006 34.2273 16.8913C34.2273 17.104 34.2309 17.2925 34.2266 17.4811C34.221 17.7136 34.2083 17.9454 34.1977 18.1771C34.1955 18.219 34.1948 18.2615 34.1885 18.3033C34.1426 18.6195 33.9744 18.803 33.7053 18.8314C33.4086 18.8945 33.114 18.718 33.0278 18.4267C33.0201 18.4033 33.0116 18.3785 33.0003 18.3494ZM33.6841 18.1452C33.8007 17.9758 33.8169 17.8525 33.7625 17.5576L33.3669 17.5314C33.3196 17.6576 33.3097 17.7944 33.3394 17.9262C33.3839 18.1523 33.4369 18.1878 33.6841 18.1452Z" fill="#7E7E7E"/>
    <path d="M13.3779 0.625461C13.7601 0.561667 14.1175 0.500707 14.4764 0.444001C14.5937 0.422736 14.7123 0.410686 14.831 0.407851C15.0867 0.388004 15.3198 0.554578 15.3855 0.802668C15.4717 1.05855 15.3785 1.34067 15.1574 1.49448C15.1192 1.52142 15.0797 1.54552 15.0345 1.57458C15.3538 1.75746 15.495 1.91198 15.8101 2.42021C15.6893 2.44289 15.5756 2.46558 15.4611 2.48542C15.3439 2.50598 15.2266 2.5237 15.0959 2.54497C14.9341 2.33657 14.7703 2.12676 14.6078 1.91624C14.535 1.78936 14.3775 1.73903 14.2447 1.8007L14.3761 2.66192L13.7304 2.77037L13.3779 0.625461ZM14.7688 1.12802C14.7491 0.955066 14.6721 0.862918 14.5343 0.872133C14.3846 0.867171 14.2355 0.89836 14.0999 0.962863L14.1783 1.3832C14.4178 1.34634 14.6516 1.36831 14.7688 1.12802Z" fill="#7E7E7E"/>
    <path d="M10.7764 2.10054C10.7799 1.36336 11.4517 1.05361 12.0126 1.03943C12.7112 1.02171 13.0503 1.64831 13.0701 2.27421C13.0913 2.96886 12.4915 3.31122 11.8169 3.3339C11.1713 3.35588 10.8089 2.74487 10.7764 2.10054ZM12.4258 2.36565C12.4166 2.14024 12.3432 1.92192 12.2146 1.73692C12.0974 1.57885 11.889 1.52072 11.7074 1.59586C11.5266 1.65327 11.4072 1.82552 11.4157 2.01548C11.4248 2.24869 11.5061 2.47339 11.6481 2.65768C11.7625 2.81008 11.9667 2.86112 12.139 2.78173C12.322 2.72998 12.4421 2.55561 12.4258 2.36565Z" fill="#7E7E7E"/>
    <path d="M26.8785 3.79543C26.8537 4.26822 26.5867 4.69423 26.1728 4.92105C25.958 5.03446 25.7058 5.05218 25.4776 4.97067C25.2142 4.88986 24.9775 4.73888 24.7924 4.53474C24.5741 4.30508 24.4915 3.9776 24.5749 3.67068C24.6427 3.38006 24.8002 3.11921 25.0248 2.92357C25.2834 2.68115 25.6571 2.60815 25.987 2.73573C26.2554 2.82434 26.4928 2.98808 26.6715 3.20781C26.8106 3.37155 26.8841 3.58066 26.8785 3.79543ZM26.2653 3.71179C26.2653 3.40558 25.9107 3.10574 25.614 3.29075C25.3618 3.44102 25.1958 3.70258 25.1675 3.99532C25.1365 4.30437 25.5045 4.56735 25.7715 4.42558C26.0343 4.2746 26.2158 4.01233 26.2653 3.71179Z" fill="#7E7E7E"/>
    <path d="M1.1707 20.6951C0.616167 20.6951 0.26155 20.4293 0.140048 19.9139C0.0934248 19.7303 0.0778831 19.5404 0.0941305 19.3511C0.147111 18.8712 0.392235 18.6076 0.859877 18.4892C1.05626 18.4353 1.26112 18.4204 1.46315 18.4452C1.83048 18.4814 2.13989 18.7352 2.24726 19.0896C2.32779 19.3164 2.35605 19.5581 2.32921 19.7977C2.30095 20.1365 2.08832 20.4314 1.7775 20.5653C1.58818 20.6568 1.3805 20.7014 1.1707 20.6951ZM1.33246 19.0867C1.14244 19.0818 0.953829 19.125 0.784998 19.2129C0.631707 19.3086 0.553296 19.4901 0.58791 19.668C0.606983 19.8501 0.746145 19.9969 0.92628 20.0245C1.1488 20.067 1.37838 20.0394 1.58465 19.9465C1.75419 19.8799 1.85874 19.7077 1.84037 19.5255C1.82766 19.2398 1.65317 19.0882 1.33246 19.0867Z" fill="#7E7E7E"/>
    <path d="M34.1979 16.0434C34.0432 16.0696 33.9076 16.0944 33.7712 16.1142C33.4802 16.1568 33.1884 16.2014 32.8967 16.2376C32.4757 16.2907 32.0243 16.1001 31.9197 15.5791C31.8759 15.3728 31.854 15.163 31.854 14.9525C31.842 14.637 32.0412 14.3521 32.3415 14.2571C32.5619 14.1891 32.7879 14.1402 33.0168 14.1111C33.3 14.0643 33.5854 14.0324 33.8701 13.9941C33.9521 14.1983 33.986 14.4187 33.9683 14.6378C33.6688 14.6817 33.365 14.7249 33.0606 14.7696C32.9285 14.7887 32.795 14.7987 32.6657 14.8277C32.4622 14.8547 32.3188 15.0418 32.3457 15.2459C32.3513 15.2913 32.3655 15.3345 32.3874 15.3749C32.4347 15.5139 32.5724 15.6018 32.718 15.5847C32.8995 15.5699 33.0797 15.5451 33.2605 15.5202C33.4894 15.4891 33.7182 15.4522 33.9471 15.421C33.9987 15.4175 34.0503 15.4175 34.1025 15.4203L34.1979 16.0434Z" fill="#7E7E7E"/>
    <path d="M31.7157 11.1285L31.2467 10.185L30.849 10.3821L31.3597 11.4212L30.9457 11.6332C30.926 11.6091 30.9083 11.5829 30.8921 11.5566C30.6392 11.0456 30.3877 10.5345 30.1221 9.99721L32.0718 9.0332L32.8622 10.6437L32.4645 10.8457L31.9559 9.83347L31.6338 9.99012L32.0937 10.9343L31.7157 11.1285Z" fill="#7E7E7E"/>
    <path d="M31.1887 8.71054L30.834 8.25901C30.9506 7.97974 30.9209 7.79473 30.75 7.69479C30.6553 7.6395 30.6129 7.65509 30.5006 7.79686L30.5946 8.08252C30.6518 8.25618 30.7196 8.42701 30.7634 8.6035C30.834 8.82537 30.7669 9.06779 30.5932 9.22231C30.4102 9.39739 30.1439 9.45268 29.9065 9.36549C29.814 9.3336 29.7278 9.2854 29.6515 9.22373C29.405 9.02171 29.2241 8.75094 29.1316 8.44544C29.044 8.1534 29.1591 7.83797 29.4142 7.67069L29.7815 8.13497C29.6833 8.27744 29.5865 8.42134 29.6685 8.59996C29.7137 8.72968 29.826 8.82395 29.9616 8.84451C30.1502 8.7715 30.1983 8.69494 30.1516 8.51419C30.1234 8.40574 30.0676 8.30438 30.0414 8.19593C29.9934 8.02085 29.9602 7.84151 29.9418 7.66076C29.9164 7.30068 30.3014 7.05755 30.6228 7.14474C30.6984 7.16175 30.7698 7.19223 30.8347 7.23405C31.1505 7.45237 31.3688 7.78623 31.4423 8.16403C31.4783 8.35329 31.3935 8.52341 31.1887 8.71054Z" fill="#7E7E7E"/>
    <path d="M1.02114 21.3501L1.22882 21.9157C1.07129 22.0341 0.985818 22.1752 1.07553 22.3715C1.12781 22.4863 1.16666 22.509 1.32348 22.504C1.43651 22.4169 1.40543 22.2935 1.40401 22.1752C1.39412 21.9582 1.39695 21.7406 1.41037 21.5244C1.45982 21.0063 2.07863 20.8482 2.44738 21.131C2.52649 21.1899 2.5936 21.2629 2.64658 21.3458C2.83731 21.6449 2.92138 22.0008 2.88464 22.3545C2.85074 22.6352 2.65647 22.7876 2.39934 22.9081L2.18601 22.3431C2.5272 22.0476 2.52296 21.7513 2.18247 21.5996C1.99528 21.6549 1.95925 21.6917 1.95289 21.8704C1.94795 22.0107 1.96278 22.1525 1.95642 22.2928C1.95501 22.4261 1.94018 22.5593 1.91121 22.6898C1.83916 22.9853 1.54247 23.1668 1.24719 23.0952C1.17867 23.0782 1.11439 23.0484 1.05646 23.0073C0.980168 22.957 0.915177 22.8918 0.863609 22.8159C0.667934 22.5281 0.579634 22.1801 0.613541 21.8328C0.643917 21.606 0.802859 21.4167 1.02114 21.3501Z" fill="#7E7E7E"/>
    <path d="M21.0645 2.902L20.4047 2.77441C20.3835 2.63548 20.3666 2.51994 20.3482 2.39873L19.6001 2.25555L19.4023 2.58657L18.7588 2.45898L19.9618 0.478516L20.6675 0.613193C20.8109 1.36384 20.9366 2.11449 21.0645 2.902ZM20.2981 1.92665C20.2952 1.66155 20.2528 1.39857 20.173 1.14552L19.8163 1.826L20.2981 1.92665Z" fill="#7E7E7E"/>
    <path d="M3.28316 10.768C3.16801 10.741 3.05004 10.7233 2.93772 10.6857C2.66505 10.5936 2.41074 10.4525 2.18822 10.2697C1.89648 10.0712 1.79334 9.68771 1.94663 9.36873C1.99467 9.24469 2.05966 9.12702 2.13948 9.0207C2.2963 8.79387 2.57604 8.68684 2.84377 8.75064C3.22382 8.82861 3.5749 9.00794 3.8617 9.27021C4.13862 9.4786 4.21773 9.86066 4.04608 10.1626C3.98674 10.2895 3.91257 10.4086 3.82497 10.5177C3.69075 10.6786 3.49225 10.7708 3.28316 10.768ZM3.3651 10.2144C3.5198 10.22 3.60457 10.1782 3.64484 10.0804C3.69217 9.97265 3.66038 9.84648 3.56713 9.77489C3.30364 9.5424 2.9907 9.3737 2.65163 9.28084C2.53931 9.24398 2.4171 9.29289 2.36129 9.3978C2.30973 9.48569 2.31891 9.59627 2.3846 9.67353C2.40438 9.70259 2.4284 9.72811 2.45595 9.75008C2.69896 9.94005 2.97092 10.0903 3.26055 10.1952C3.29446 10.2052 3.32978 10.2115 3.3651 10.2144Z" fill="#7E7E7E"/>
    <path d="M32.34 13.1446V13.6869C31.9861 13.7783 31.6181 13.6046 31.462 13.2729C31.3588 13.0723 31.2981 12.8519 31.2839 12.6265C31.2515 12.2643 31.4365 11.9183 31.7551 11.7454C32.001 11.5916 32.287 11.5136 32.5774 11.5221C32.8197 11.5221 33.0507 11.6256 33.2117 11.8071C33.4491 12.0729 33.5727 12.4216 33.5565 12.7782C33.5423 13.0574 33.389 13.3105 33.1496 13.453L32.8607 12.9518C32.8875 12.9213 32.9115 12.8965 32.9334 12.8703C33.0895 12.6981 33.0768 12.4322 32.9059 12.2756C32.8147 12.192 32.6911 12.153 32.5682 12.1693C32.369 12.2068 32.1761 12.2713 31.9939 12.3607C31.8307 12.4322 31.7474 12.6151 31.8003 12.786C31.8279 12.9589 31.9635 13.0936 32.1359 13.1205C32.1959 13.1319 32.2588 13.1347 32.34 13.1446Z" fill="#7E7E7E"/>
    <path d="M2.32821 12.7007C1.93333 12.6589 1.55752 12.5122 1.23752 12.2762C1.02277 12.1266 0.922458 11.8601 0.985328 11.6056C1.0157 11.4546 1.06303 11.3079 1.12661 11.1683C1.24882 10.8854 1.54692 10.7224 1.84997 10.7727C2.22154 10.8068 2.57828 10.9365 2.88557 11.1491C3.17943 11.3164 3.30871 11.6729 3.19074 11.9905C3.1646 12.0848 3.12998 12.1776 3.08901 12.2662C2.95056 12.5675 2.70897 12.7029 2.32821 12.7007ZM2.47302 12.1535C2.64256 12.1521 2.73228 12.0954 2.77113 11.9877C2.80998 11.8849 2.77254 11.7686 2.68142 11.7077C2.61784 11.6524 2.5472 11.6063 2.47161 11.5702C2.3049 11.4986 2.13324 11.4355 1.96159 11.3752C1.88176 11.3483 1.79982 11.3299 1.71646 11.3185C1.5879 11.2944 1.45933 11.3632 1.40776 11.4837C1.36679 11.5879 1.39787 11.6815 1.51372 11.7764C1.56105 11.8183 1.61474 11.8523 1.67266 11.8778C1.88741 11.9621 2.10357 12.0422 2.32115 12.1195C2.3713 12.1344 2.42287 12.145 2.47514 12.1521L2.47302 12.1535Z" fill="#7E7E7E"/>
    <path d="M0.707533 16.2797L0.607929 16.8318C0.180552 16.7439 -0.0101785 16.5122 0.000417626 16.0854C0.00465608 15.9097 0.0293806 15.7353 0.0745907 15.5652C0.151589 15.237 0.479363 15.0328 0.80643 15.1101C0.894024 15.1306 0.975968 15.1703 1.0459 15.2263C1.20484 15.3546 1.33553 15.5141 1.43019 15.6956C1.51143 15.8253 1.59266 15.955 1.68662 16.106C1.78834 15.9472 1.74242 15.7962 1.76503 15.6573C1.78834 15.5127 1.79752 15.366 1.81589 15.193L2.28636 15.2185C2.23126 15.831 2.17898 16.4172 2.12529 17.0261C1.91761 16.9828 1.72759 16.8786 1.57853 16.7269C1.43867 16.5703 1.31716 16.3966 1.19284 16.2272C1.11796 16.1251 1.05297 16.016 0.982326 15.9118C0.959014 15.877 0.93217 15.8437 0.903207 15.8133C0.826915 15.7168 0.700469 15.675 0.581792 15.7062C0.479363 15.7431 0.409428 15.8381 0.405896 15.9472C0.401658 16.0713 0.47795 16.184 0.594507 16.2251C0.626296 16.2378 0.656672 16.2541 0.707533 16.2797Z" fill="#7E7E7E"/>
    <path d="M10.1964 2.62124L10.3907 2.99054L9.64612 3.39457L10.0516 4.18279L9.47235 4.49325L8.46289 2.56524L9.92233 1.79688L10.1385 2.19027L9.26961 2.65668L9.44621 3.00968L10.1964 2.62124Z" fill="#7E7E7E"/>
    <path d="M31.5 24.0963L30.6699 23.7319L30.9313 23.1309L31.7719 23.4888L33.2596 23.2244L32.9693 23.8858L32.1124 24.0034L32.609 24.7108L32.3222 25.3793L31.5 24.0963Z" fill="#7E7E7E"/>
    <path d="M22.2196 3.31663L21.6015 3.1054L22.12 1.56583C21.9265 1.43611 21.6948 1.41697 21.4814 1.30427L21.6482 0.822266L23.5731 1.47935L23.4064 1.97057L22.753 1.75792L22.2196 3.31663Z" fill="#7E7E7E"/>
    <path d="M31.6439 20.9217L33.2326 21.3385L33.4177 20.6758L33.9157 20.8069L33.4036 22.7739L32.8985 22.6506L33.068 21.9821L31.4814 21.5576L31.6439 20.9217Z" fill="#7E7E7E"/>
    <path d="M0.684875 14.5671L0.21582 14.4551L0.599401 12.7461L0.980155 12.8297C1.33124 13.406 1.8886 13.8271 2.53778 14.0064L2.41204 14.5685C1.82502 14.3849 1.31217 14.017 0.948365 13.5187C0.829689 13.876 0.795075 14.2176 0.684875 14.5671Z" fill="#7E7E7E"/>
    <path d="M3.83395 7.78843C3.79227 7.99824 3.75766 8.17687 3.72022 8.35478C3.70821 8.39093 3.69196 8.42637 3.67289 8.45969L3.29849 8.18466C3.40234 7.86498 3.44543 7.54814 3.26953 7.23696L3.56128 6.83789L5.33507 8.14993L4.9861 8.63335L3.83395 7.78843Z" fill="#7E7E7E"/>
    <path d="M7.0131 6.30728L6.56029 6.79353L5.06836 5.21923L5.52541 4.74219L7.0131 6.30728Z" fill="#7E7E7E"/>
    <path d="M23.7819 3.99342L23.1885 3.70706L24.1132 1.74219L24.7122 2.02147L23.7819 3.99342Z" fill="#7E7E7E"/>
    <path d="M3.24359 23.0625L3.50355 23.67L1.51359 24.5326L1.25293 23.9259L3.24359 23.0625Z" fill="#7E7E7E"/>
    <path d="M31.8516 19.8887L31.9455 19.25C32.6604 19.3365 33.3597 19.4442 34.0838 19.5534L33.9955 20.1949C33.2729 20.1056 32.5707 20.0021 31.8516 19.8887Z" fill="#7E7E7E"/>
    <path d="M26.5068 17.526C26.5132 18.0923 26.3875 18.653 26.1409 19.162C25.8244 19.7836 25.2925 20.2677 24.6447 20.5229C24.1743 20.71 23.6756 20.8142 23.1698 20.8327C22.5806 20.8794 21.9879 20.8149 21.4228 20.6434C20.2 20.25 19.4675 19.4228 19.281 18.1342C19.1884 17.5472 19.2259 16.9476 19.3905 16.377C19.6384 15.5065 20.2834 14.8069 21.1289 14.4901C21.8537 14.2136 22.635 14.1172 23.405 14.2101C23.8472 14.2399 24.2809 14.3455 24.6878 14.5213C25.6521 14.9203 26.3253 15.8135 26.4454 16.8533C26.4779 17.0759 26.4871 17.302 26.5068 17.526ZM24.105 17.526C24.0853 17.2247 24.0754 16.9214 24.0422 16.6215C24.0175 16.2834 23.9263 15.9545 23.7737 15.6518C23.6049 15.3152 23.2559 15.1075 22.8808 15.1209C22.4987 15.1018 22.1398 15.3081 21.9632 15.649C21.8389 15.8865 21.7584 16.1438 21.7245 16.4096C21.6256 17.0645 21.6135 17.7294 21.6891 18.3872C21.7124 18.6892 21.7845 18.9862 21.9025 19.2647C22.1299 19.7985 22.7466 20.0466 23.2786 19.8183C23.5124 19.7177 23.7017 19.5355 23.8119 19.3058C23.8769 19.1655 23.9277 19.0195 23.9624 18.8685C24.0577 18.4269 24.105 17.9775 24.105 17.526Z" fill="#7E7E7E"/>
    <path d="M17.3339 16.5035C17.2922 16.388 17.2604 16.2951 17.2265 16.203C16.9962 15.582 16.5328 15.2659 15.8928 15.1971C15.6491 15.1596 15.3997 15.173 15.1617 15.2368C15.0055 15.2822 14.865 15.3687 14.7541 15.4885C14.5259 15.7415 14.5506 16.0265 14.8402 16.2037C15.0091 16.3036 15.1913 16.3795 15.3806 16.4291C15.7791 16.5389 16.1867 16.6183 16.5865 16.7261C17.0513 16.8388 17.4949 17.0245 17.9018 17.2768C18.3391 17.5497 18.6195 18.0168 18.6548 18.5322C18.729 19.0553 18.5828 19.5855 18.2508 19.9959C17.9986 20.2929 17.6708 20.5155 17.3021 20.6395C16.809 20.8061 16.287 20.8727 15.7678 20.8351C15.1567 20.8018 14.5584 20.6466 14.0074 20.3787C13.9834 20.3673 13.9565 20.3602 13.9156 20.3461L13.681 20.6771H12.8531V18.3798C12.9958 18.3578 13.1413 18.3521 13.2854 18.362C13.4253 18.3585 13.5652 18.3613 13.7227 18.3613C13.7517 18.4372 13.7771 18.5081 13.8061 18.5775C14.0943 19.2665 14.5782 19.728 15.3248 19.8718C15.5728 19.9293 15.8306 19.9236 16.0757 19.8555C16.21 19.8158 16.335 19.7521 16.4459 19.6663C16.6599 19.5132 16.7101 19.2148 16.5582 19C16.5271 18.956 16.489 18.9178 16.4452 18.8866C16.2651 18.7533 16.0652 18.6484 15.8532 18.5761C15.4428 18.4329 15.0197 18.328 14.6057 18.1955C14.3168 18.1083 14.0328 18.0055 13.7552 17.8878C13.2275 17.6525 12.8411 17.2697 12.7238 16.6878C12.5366 15.7585 12.9259 14.9505 13.775 14.5011C14.1388 14.3146 14.5393 14.2104 14.9469 14.1941C15.7204 14.1367 16.4968 14.2778 17.2011 14.6038C17.2265 14.6159 17.2533 14.6244 17.2992 14.6421L17.4709 14.3543H18.3426V16.4985C18.1808 16.5 18.0155 16.5028 17.851 16.5035C17.6814 16.5042 17.5133 16.5035 17.3339 16.5035Z" fill="#7E7E7E"/>
    <path d="M12.1132 19.7752V20.6393H8.43066V19.7752C8.5444 19.7752 8.6553 19.7773 8.76479 19.7745C8.84179 19.7745 8.91879 19.7681 8.99508 19.7554C9.11164 19.744 9.20489 19.6519 9.21831 19.5349C9.23526 19.4449 9.24656 19.3542 9.2508 19.2634C9.25292 18.0939 9.25292 16.9236 9.2508 15.754C9.2501 15.3401 9.15191 15.2458 8.73936 15.2387C8.64188 15.2373 8.54369 15.2387 8.43066 15.2387V14.3789H12.0877C12.1358 14.6582 12.14 14.9438 12.0997 15.2245C12.0489 15.2295 11.9952 15.2359 11.9408 15.2394C11.8864 15.243 11.8285 15.2394 11.772 15.2408C11.3962 15.2543 11.3072 15.3351 11.3072 15.7072C11.3036 16.9052 11.3036 18.1031 11.3072 19.301C11.3086 19.6852 11.3983 19.7681 11.7833 19.7752C11.8878 19.7766 11.9917 19.7752 12.1132 19.7752Z" fill="#7E7E7E"/>
</svg>
