<svg width="83" height="33" viewBox="0 0 83 33" fill="none" xmlns="http://www.w3.org/2000/svg">
    <path d="M56.6663 18.4235L57.4961 18.6725C57.4408 18.9076 57.3578 19.1012 57.2333 19.2534C57.1089 19.4055 56.9705 19.53 56.7907 19.5991C56.6109 19.6821 56.3896 19.7236 56.113 19.7236C55.7811 19.7236 55.5183 19.6821 55.297 19.5853C55.0895 19.4885 54.9097 19.3225 54.7576 19.0736C54.6054 18.8384 54.5225 18.5203 54.5225 18.1469C54.5225 17.649 54.6608 17.2617 54.9236 16.9851C55.1863 16.7085 55.5736 16.584 56.0577 16.584C56.445 16.584 56.7354 16.667 56.9567 16.8191C57.178 16.9713 57.344 17.2064 57.4408 17.5383L56.6109 17.7181C56.5833 17.6213 56.5556 17.5522 56.5141 17.5107C56.4588 17.4415 56.4035 17.3862 56.3205 17.3447C56.2375 17.3032 56.1545 17.2894 56.0715 17.2894C55.8641 17.2894 55.6981 17.3724 55.5874 17.5522C55.5045 17.6766 55.463 17.8841 55.463 18.1469C55.463 18.4788 55.5183 18.714 55.6151 18.8384C55.7119 18.9629 55.8641 19.0321 56.0439 19.0321C56.2237 19.0321 56.362 18.9767 56.445 18.8799C56.5556 18.7555 56.6248 18.6171 56.6663 18.4235Z" fill="#5F5F5F"/>
    <path d="M57.8281 18.147C57.8281 17.6491 57.9664 17.2619 58.2431 16.9852C58.5197 16.7086 58.9069 16.5703 59.4049 16.5703C59.9166 16.5703 60.3039 16.7086 60.5805 16.9714C60.8571 17.248 60.9954 17.6215 60.9954 18.1194C60.9954 18.479 60.9401 18.7694 60.8156 18.9907C60.6911 19.212 60.5252 19.3918 60.29 19.5163C60.0687 19.6408 59.7783 19.7099 59.4464 19.7099C59.1006 19.7099 58.824 19.6546 58.5888 19.544C58.3675 19.4333 58.1877 19.2674 58.0356 19.0184C57.8834 18.7694 57.8281 18.5067 57.8281 18.147ZM58.7686 18.147C58.7686 18.4513 58.824 18.6726 58.9346 18.8109C59.0453 18.9492 59.1974 19.0184 59.4049 19.0184C59.6123 19.0184 59.7645 18.9492 59.8751 18.8248C59.9858 18.6865 60.0411 18.4513 60.0411 18.1194C60.0411 17.8289 59.9858 17.6215 59.8613 17.497C59.7506 17.3587 59.5847 17.3034 59.391 17.3034C59.1974 17.3034 59.0453 17.3725 58.9346 17.5108C58.824 17.6215 58.7686 17.8428 58.7686 18.147Z" fill="#5F5F5F"/>
    <path d="M61.4798 16.625H62.7108L63.181 18.4784L63.6513 16.625H64.8822V19.6678H64.1077V17.3442L63.513 19.6678H62.8214L62.2267 17.3442V19.6678H61.4521V16.625H61.4798Z" fill="#5F5F5F"/>
    <path d="M65.4902 16.625H67.0531C67.3989 16.625 67.6479 16.708 67.8138 16.874C67.9798 17.0399 68.0628 17.2612 68.0628 17.5655C68.0628 17.8698 67.966 18.1187 67.7862 18.2847C67.6064 18.4645 67.3159 18.5475 66.9425 18.5475H66.4307V19.6816H65.4902V16.625ZM66.4307 17.9251H66.6659C66.8457 17.9251 66.9702 17.8974 67.0531 17.8283C67.1223 17.7591 67.1638 17.69 67.1638 17.5932C67.1638 17.4964 67.1361 17.4134 67.067 17.3442C66.9978 17.2751 66.8872 17.2474 66.7074 17.2474H66.4446V17.9251H66.4307Z" fill="#5F5F5F"/>
    <path d="M68.5615 16.625H69.502V18.9209H70.9681V19.6678H68.5615V16.625Z" fill="#5F5F5F"/>
    <path d="M71.4375 16.625H72.378V19.6678H71.4375V16.625Z" fill="#5F5F5F"/>
    <path d="M74.9234 19.1562H73.8584L73.7063 19.6541H72.752L73.8999 16.6113H74.9234L76.0714 19.6541H75.0894L74.9234 19.1562ZM74.7298 18.5062L74.3978 17.4135L74.0659 18.5062H74.7298Z" fill="#5F5F5F"/>
    <path d="M76.3613 16.625H77.2327L78.3806 18.3124V16.625H79.2658V19.6678H78.3806L77.2465 17.9943V19.6678H76.3613V16.625Z" fill="#5F5F5F"/>
    <path d="M79.6816 16.625H82.5446V17.3719H81.5903V19.6678H80.6498V17.3719H79.6955V16.625H79.6816Z" fill="#5F5F5F"/>
    <path d="M45.3518 21.2596L48.0765 20.4021L47.1913 18.4381C46.5413 19.2541 45.8912 20.3053 45.3518 21.2596ZM44.4251 12.2833L39.0864 0.388672L0 2.60163L10.8297 32.1446L31.673 25.5749C30.3452 23.6662 29.8611 21.3979 31.3963 20.2915C33.1114 19.0467 35.6978 20.4851 37.3437 22.5183C38.9342 19.8627 43.4016 13.6803 44.4251 12.2833Z" fill="#7E7E7E"/>
    <path d="M37.87 8.98616C39.502 8.98616 40.8298 7.74137 40.8298 6.1923C40.8298 4.64323 39.502 3.39844 37.87 3.39844C36.2379 3.39844 34.9102 4.64323 34.9102 6.1923C34.9102 7.72754 36.2379 8.98616 37.87 8.98616ZM35.4496 10.1895H40.2904V22.8448H35.4496V10.1895Z" fill="#FAFBFF"/>
    <path d="M33.0567 13.8826C33.0982 13.8964 33.1258 13.8826 33.1258 13.8411V10.6323C33.1258 10.5908 33.0982 10.5493 33.0567 10.5216C33.0567 10.5216 32.4205 10.1067 30.4841 9.99604C30.3873 9.94072 28.6861 9.92689 28.2297 9.99604C21.1759 10.5631 20.9131 15.6667 20.9131 15.888V17.1328C20.9131 17.285 20.9131 22.4993 28.2297 22.9557C28.9489 23.011 30.3458 22.9557 30.4841 22.9557C32.1715 22.9557 33.3333 22.4439 33.3333 22.4439C33.3748 22.4301 33.4025 22.3886 33.4025 22.3471V19.3458C33.4025 19.3043 33.3748 19.2905 33.3471 19.3181C33.3471 19.3181 32.8216 19.7331 30.5256 19.9682C29.8756 20.0373 29.5575 20.0097 29.3223 19.9682C26.0582 19.4149 25.9061 17.036 25.9061 17.036C25.9061 16.9945 25.8922 16.9254 25.8922 16.8977V15.9849C25.8922 15.9434 25.8922 15.8742 25.9061 15.8466C25.9061 15.8466 26.1274 13.2878 29.3223 13.0112H30.5256C31.9226 13.191 33.0567 13.8826 33.0567 13.8826Z" fill="#FAFBFF"/>
    <path d="M7.46875 22.8039C7.46875 22.8454 7.49641 22.873 7.5379 22.873H12.2543C12.2958 22.873 12.3234 22.8454 12.3234 22.8039V19.1248C12.3234 19.0833 12.3511 19.0557 12.3926 19.0557C12.3926 19.0557 19.9305 19.5951 19.9305 14.5468C19.9305 10.5496 15.2003 10.1208 13.6512 10.19C13.6235 10.19 7.5379 10.19 7.5379 10.19C7.49641 10.19 7.46875 10.2177 7.46875 10.2592V22.8039ZM12.2404 16.248V12.9424H13.4022C13.4022 12.9424 15.0758 13.0115 15.2141 14.1595C15.2418 14.2425 15.2418 14.8096 15.2141 14.8372C14.9928 16.1788 13.5406 16.248 13.5406 16.248H12.2404Z" fill="#FAFBFF"/>
    <path d="M38.0072 28.95C38.3945 28.95 38.6988 28.95 39.1967 28.7287C40.9117 27.8297 46.7069 13.6806 52.8202 9.3238C52.8617 9.29614 52.9032 9.25464 52.9309 9.21315C52.9723 9.15783 52.9723 9.1025 52.9723 9.1025C52.9723 9.1025 52.9723 8.81205 52.0733 8.81205C46.6378 8.65991 40.9809 20.0705 38.0072 24.5794C37.9657 24.6347 37.7721 24.5794 37.7721 24.5794C37.7721 24.5794 35.7804 22.2281 34.0516 21.3291C34.0101 21.3153 33.8164 21.2461 33.609 21.2599C33.4707 21.2599 32.6685 21.4259 32.295 21.8132C31.8524 22.2834 31.8663 22.5462 31.8663 23.1133C31.8663 23.1548 31.8939 23.3484 31.9492 23.4452C32.378 24.1921 34.3005 26.8477 35.8911 28.3137C36.1262 28.4936 36.4996 28.95 38.0072 28.95Z" fill="#606060"/>
    <path d="M54.4248 5.04883H58.9475C59.8466 5.04883 60.5658 5.17331 61.1052 5.40843C61.6584 5.65739 62.1148 6.00317 62.4606 6.44576C62.8202 6.90218 63.083 7.42776 63.2351 8.02249C63.4011 8.61722 63.4841 9.25345 63.4841 9.93117C63.4841 10.9823 63.3596 11.7984 63.1245 12.3793C62.8894 12.9602 62.5574 13.4442 62.1287 13.8453C61.6999 14.2326 61.2435 14.4954 60.7594 14.6337C60.0955 14.8135 59.4869 14.8965 58.9475 14.8965H54.4248V5.04883ZM57.4676 7.27562V12.6559H58.2145C58.8507 12.6559 59.3071 12.5867 59.5699 12.4484C59.8327 12.3101 60.054 12.0611 60.2062 11.7154C60.3583 11.3696 60.4413 10.7887 60.4413 10.0003C60.4413 8.94917 60.2753 8.24379 59.9295 7.85652C59.5838 7.46925 59.0305 7.27562 58.2283 7.27562H57.4676Z" fill="#5F5F5F"/>
    <path d="M64.3281 11.6463L67.2326 11.4665C67.3018 11.9368 67.4263 12.2964 67.6199 12.5453C67.938 12.9464 68.3806 13.1401 68.9615 13.1401C69.3903 13.1401 69.736 13.0433 69.9712 12.8358C70.2063 12.6283 70.3308 12.3932 70.3308 12.1304C70.3308 11.8815 70.2201 11.6463 69.9988 11.4389C69.7775 11.2314 69.252 11.0516 68.4359 10.8718C67.0943 10.5675 66.1538 10.1664 65.5729 9.66849C64.992 9.17058 64.7154 8.53435 64.7154 7.75982C64.7154 7.24807 64.8675 6.77782 65.158 6.3214C65.4484 5.86497 65.891 5.5192 66.4858 5.25641C67.0805 4.99362 67.8827 4.86914 68.9062 4.86914C70.1648 4.86914 71.133 5.10427 71.783 5.57452C72.4469 6.04478 72.8342 6.79165 72.9587 7.81514L70.0818 7.98112C69.9988 7.53852 69.8467 7.22041 69.5977 7.01295C69.3488 6.80548 69.0168 6.70866 68.5881 6.70866C68.2285 6.70866 67.9657 6.77782 67.7859 6.92996C67.6061 7.0821 67.5231 7.2619 67.5231 7.4832C67.5231 7.63534 67.5922 7.78748 67.7444 7.91196C67.8827 8.03644 68.2285 8.16091 68.7679 8.27156C70.0956 8.56201 71.05 8.85247 71.6309 9.14292C72.2118 9.43337 72.6267 9.8068 72.8895 10.2356C73.1523 10.6643 73.2768 11.1622 73.2768 11.7017C73.2768 12.3379 73.097 12.9188 72.7512 13.4444C72.4054 13.9838 71.9075 14.3849 71.2851 14.6615C70.6627 14.9381 69.8605 15.0764 68.9062 15.0764C67.2326 15.0764 66.0708 14.7583 65.4208 14.1082C64.7845 13.4582 64.4249 12.6422 64.3281 11.6463Z" fill="#5F5F5F"/>
    <path d="M74.0508 11.6463L76.9553 11.4665C77.0244 11.9368 77.1489 12.2964 77.3426 12.5453C77.6607 12.9464 78.1033 13.1401 78.6842 13.1401C79.1129 13.1401 79.4587 13.0433 79.6938 12.8358C79.929 12.6283 80.0534 12.3932 80.0534 12.1304C80.0534 11.8815 79.9428 11.6463 79.7215 11.4389C79.5002 11.2314 78.9746 11.0516 78.1586 10.8718C76.817 10.5675 75.8765 10.1664 75.2956 9.66849C74.7285 9.17058 74.438 8.53435 74.438 7.75982C74.438 7.24807 74.5902 6.77782 74.8806 6.3214C75.1711 5.86497 75.6137 5.5192 76.2084 5.25641C76.8031 4.99362 77.6053 4.86914 78.6288 4.86914C79.8875 4.86914 80.8556 5.10427 81.5057 5.57452C82.1696 6.04478 82.5568 6.79165 82.6813 7.81514L79.8045 7.98112C79.7215 7.53852 79.5693 7.22041 79.3204 7.01295C79.0714 6.80548 78.7395 6.70866 78.3107 6.70866C77.9511 6.70866 77.6883 6.77782 77.5085 6.92996C77.3287 7.0821 77.2457 7.2619 77.2457 7.4832C77.2457 7.63534 77.3149 7.78748 77.467 7.91196C77.6053 8.03644 77.9511 8.16091 78.4905 8.27156C79.8183 8.56201 80.7726 8.85247 81.3535 9.14292C81.9344 9.43337 82.3494 9.8068 82.6122 10.2356C82.8749 10.6643 82.9994 11.1622 82.9994 11.7017C82.9994 12.3379 82.8196 12.9188 82.4738 13.4444C82.1281 13.9838 81.6302 14.3849 81.0078 14.6615C80.3854 14.9381 79.5832 15.0764 78.6288 15.0764C76.9553 15.0764 75.7935 14.7583 75.1434 14.1082C74.4934 13.4582 74.1338 12.6422 74.0508 11.6463Z" fill="#5F5F5F"/>
</svg>
