<svg width="85" height="36" viewBox="0 0 85 36" fill="none" xmlns="http://www.w3.org/2000/svg">
    <path d="M28.2082 2.15617C25.2785 0.556703 21.9687 -0.171765 18.6431 0.0341063C15.3175 0.255814 12.1186 1.41186 9.42642 3.37556C6.68674 5.35509 4.58052 8.07893 3.36113 11.2304C2.72768 12.8615 2.33177 14.5718 2.20508 16.3138H6.57589C6.87678 13.0674 8.36539 10.0426 10.7567 7.82555C13.1479 5.60847 16.2677 4.34157 19.53 4.29406C22.8714 4.23072 26.1179 5.43427 28.62 7.66719C31.1063 9.9001 32.6741 12.9882 32.9908 16.3138H37.3458C37.0607 11.5471 34.3844 5.54513 28.2082 2.15617ZM21.0186 13.2732C20.7335 13.6216 20.3534 13.8592 19.91 13.9859C19.4825 14.1126 19.0232 14.0967 18.5956 13.9384C18.2789 13.8592 17.9938 13.7008 17.7563 13.4633C17.5188 13.2416 17.3446 12.9565 17.2495 12.6556C17.1545 12.3547 17.1387 12.0222 17.202 11.7054C17.2654 11.3887 17.4079 11.0878 17.6138 10.8503C17.9938 10.4385 18.5164 10.1693 19.0865 10.1218C19.6567 10.0743 20.2109 10.2327 20.6543 10.5811C20.7969 10.6919 20.9236 10.8186 21.0502 10.9453C21.2086 10.8344 21.367 10.7078 21.557 10.5811C21.3511 10.2802 21.0819 10.0268 20.7652 9.8526C20.1792 9.53587 19.5141 9.40918 18.849 9.5042C18.5006 9.53587 18.1522 9.64672 17.8355 9.80509C17.5188 9.97928 17.2495 10.201 17.0278 10.4702C16.8061 10.7394 16.6478 11.0403 16.5527 11.3729C16.4577 11.7054 16.4419 12.0538 16.4894 12.3864C16.5369 12.814 16.6953 13.2416 16.9486 13.59C17.202 13.9384 17.5504 14.2234 17.9463 14.3976C18.4214 14.6193 18.9599 14.6985 19.4825 14.651C20.1159 14.6351 20.7335 14.3818 21.2244 13.97C21.3511 13.8592 21.4461 13.7325 21.5728 13.6216L21.0344 13.2416C21.0344 13.2416 21.0344 13.2574 21.0186 13.2732ZM25.0251 14.5718H25.7853L26.5771 12.9882H28.6833L29.491 14.5718H30.2353C29.3643 12.814 28.5091 11.072 27.6381 9.33C26.7671 11.072 25.8961 12.814 25.0251 14.5718ZM26.9097 12.3389C27.1472 11.848 27.4006 11.3729 27.6381 10.882C27.8915 11.3729 28.1291 11.8638 28.3666 12.3389H26.9097ZM9.37891 14.5718H10.1391C10.4083 14.0492 10.6775 13.5108 10.9309 12.9882H13.0371C13.3063 13.5108 13.5755 14.0492 13.8447 14.5718H14.589L11.9919 9.31416C11.1209 11.072 10.2499 12.814 9.37891 14.5718ZM11.2476 12.3389C11.4851 11.848 11.7385 11.3729 11.9919 10.8661C12.2453 11.3729 12.4828 11.848 12.7204 12.3389H11.2476ZM25.6428 11.6738C25.7536 11.4996 25.8328 11.2937 25.8486 11.0878C25.8645 10.882 25.8328 10.6602 25.7536 10.4702C25.6744 10.2802 25.5477 10.106 25.3894 9.96345C25.231 9.82092 25.041 9.72591 24.8351 9.6784C24.5976 9.61505 24.3442 9.58338 24.0908 9.59922C23.584 9.58338 23.0773 9.59922 22.5547 9.59922C22.523 9.59922 22.4913 9.59922 22.4755 9.59922V14.5718H23.1406V12.3389C23.3148 12.3389 23.4732 12.3389 23.6316 12.3389C23.9483 12.3231 24.2808 12.3231 24.5976 12.2914C24.8034 12.2755 25.0093 12.2122 25.1993 12.1172C25.3735 11.9905 25.5319 11.848 25.6428 11.6738ZM25.1043 11.1987C25.0568 11.3412 24.9618 11.4521 24.8351 11.5312C24.7084 11.6104 24.5659 11.6579 24.4234 11.6579C24.0116 11.6738 23.584 11.6579 23.1565 11.6579V10.201C23.5999 10.2168 24.0275 10.2168 24.455 10.2327C24.5659 10.2327 24.6768 10.2643 24.7718 10.3118C24.8668 10.3594 24.9618 10.4385 25.0251 10.5336C25.0885 10.6286 25.1202 10.7394 25.136 10.8503C25.1518 10.977 25.136 11.1037 25.1043 11.1987ZM14.985 14.556H15.6659V9.58338H14.985V14.556ZM59.96 27.5417H61.1319V31.2316H62.4463V27.5417H63.6181V26.5124H59.9758V27.5417H59.96ZM63.9824 31.2157H65.2968V26.4965H63.9824V31.2157ZM70.1427 31.2157H71.4571V26.4965H70.1427V31.2157ZM66.1203 27.4309V28.381V29.347V31.2157H67.4347V29.347H69.05V28.381H67.4347V27.4309H69.5409V26.4965H66.1361L66.1203 27.4309ZM72.2806 27.4309V28.2702V29.2362V30.2972V31.2316H75.6854V30.2972H73.5792V29.2362H75.1945V28.2702H73.5792V27.4309H75.6854V26.4965H72.2806V27.4309ZM51.5351 31.2316H54.9399V30.2972H52.8336V29.2362H54.4489V28.2702H52.8336V27.4309H54.9399V26.4965H51.5351V31.2316ZM78.3459 26.4965H76.398V31.2157H78.3459C78.9001 31.2157 79.4386 30.994 79.8345 30.5981C80.2304 30.2022 80.4521 29.6638 80.4521 29.1095V28.5869C80.4521 28.0326 80.2304 27.4942 79.8345 27.0983C79.4386 26.7182 78.9001 26.4965 78.3459 26.4965ZM77.6966 30.2972V27.4467C78.1558 27.4467 79.1219 27.2408 79.1219 28.872C79.1377 30.4873 78.1717 30.2972 77.6966 30.2972ZM59.5957 27.9693C59.5957 27.7793 59.5641 27.5892 59.4849 27.3992C59.4057 27.225 59.2948 27.0666 59.1682 26.9241C59.0256 26.7816 58.8673 26.6866 58.6931 26.6074C58.5189 26.5282 58.3288 26.4965 58.123 26.4965H55.6683V31.2157H56.9827V29.4421H57.4578L58.1863 31.2157H59.6591L58.8514 29.252C59.0731 29.1253 59.2632 28.9353 59.4057 28.7136C59.5324 28.4919 59.5957 28.2385 59.5957 27.9693ZM57.7587 28.5077H56.9827V27.4309H57.7587C57.9013 27.4309 58.0438 27.4942 58.1388 27.5892C58.2338 27.6842 58.2972 27.8268 58.2972 27.9693C58.2972 28.1118 58.2338 28.2543 58.1388 28.3494C58.0438 28.4602 57.9013 28.5077 57.7587 28.5077ZM49.128 21.6189H50.9175V16.5672H52.5169V16.1713L54.053 18.9426V21.6348H55.8425V18.9426L57.9488 15.1577H56.0326L54.9557 17.1848L53.8788 15.1577H47.5285V16.583H49.128V21.6189ZM68.7333 16.4246V15.1419H64.0457V21.6189H68.7333V20.352H65.8511V18.8951H68.0681V17.5649H65.8511V16.4246H68.7333ZM49.0488 26.3698H48.8746C48.3203 26.3698 47.7977 26.5915 47.4018 26.9716C47.0059 27.3675 46.7842 27.8901 46.7842 28.4444V29.252C46.7842 29.5212 46.8317 29.7905 46.9426 30.0438C47.0534 30.2972 47.1959 30.5189 47.386 30.7248C47.576 30.9148 47.8135 31.0732 48.0669 31.1682C48.3203 31.2791 48.5895 31.3266 48.8587 31.3266H49.0329C49.5397 31.3266 50.0148 31.1207 50.379 30.7723C50.7433 30.4239 50.9333 29.933 50.9333 29.4262H49.6822C49.5872 30.123 49.2705 30.3606 48.8904 30.3606C48.4312 30.3606 48.0669 30.028 48.0669 28.9195C48.0669 27.8268 48.4312 27.3358 48.8904 27.3358C49.2547 27.3358 49.5714 27.6684 49.6822 28.3652H50.9333V28.2702C50.9333 27.7634 50.7274 27.2725 50.379 26.9241C50.0465 26.5757 49.5555 26.3698 49.0488 26.3698ZM64.4575 10.8186H64.695C65.376 10.8186 66.0253 10.5494 66.5003 10.0743C66.9754 9.59922 67.2605 8.94993 67.2605 8.26897H65.5818C65.4552 9.20331 65.0276 9.52003 64.5208 9.52003C63.9032 9.52003 63.4123 9.06078 63.4123 7.58801C63.4123 6.11523 63.9032 5.45011 64.5208 5.45011C65.0117 5.45011 65.4393 5.89353 65.5818 6.82787H67.2605V6.68534C67.2605 6.00438 66.9913 5.35509 66.5162 4.86417C66.0411 4.38908 65.376 4.11986 64.695 4.11986H64.4575C63.7132 4.11986 63.0005 4.42075 62.4779 4.94335C61.9553 5.46595 61.6544 6.17858 61.6544 6.92288V8.01559C61.6544 8.37982 61.7336 8.74406 61.8603 9.09245C62.0028 9.42502 62.2087 9.74174 62.4621 9.99512C62.7155 10.2485 63.0322 10.4544 63.3648 10.5969C63.7132 10.7553 64.0774 10.8186 64.4575 10.8186ZM62.6205 18.7843C62.6838 18.7367 62.7472 18.6892 62.7947 18.6417C62.8105 18.6259 62.8263 18.6259 62.8263 18.6101C62.8738 18.5625 62.9055 18.5309 62.9372 18.4834C62.953 18.4675 62.9847 18.4359 63.0005 18.4042C63.0322 18.3725 63.048 18.3408 63.0639 18.3092C63.0956 18.2775 63.1272 18.23 63.1431 18.1825C63.3173 17.8816 63.4123 17.5173 63.4123 17.169C63.4123 16.8997 63.3648 16.6464 63.2539 16.393C63.1589 16.1554 63.0005 15.9179 62.8105 15.7437C62.6205 15.5537 62.3988 15.4111 62.1612 15.3003C61.9237 15.2053 61.6544 15.1419 61.3852 15.1419H58.0121V21.6189H59.8016V19.196H61.3694C61.8445 19.196 62.2721 19.0535 62.6205 18.7843ZM59.8491 17.8974V16.4246H60.9101C61.1002 16.4246 61.2902 16.5038 61.4327 16.6464C61.5753 16.7889 61.6544 16.9789 61.6544 17.169C61.6544 17.359 61.5753 17.549 61.4327 17.6915C61.2902 17.8341 61.1002 17.9133 60.9101 17.9133H59.8491V17.8974ZM74.0543 15.1419H72.2648V21.6189H74.0543V15.1419ZM75.2103 21.6189H76.9998V15.1419H75.2103V21.6189ZM58.0596 10.8186H58.408C58.8039 10.8186 59.184 10.7236 59.5482 10.5494C59.8966 10.3752 60.2133 10.1218 60.4509 9.80509C60.8785 9.29832 61.1002 8.66488 61.1002 8.01559V6.92288C61.1002 6.2736 60.8785 5.64015 60.4509 5.13339C60.2133 4.81666 59.8966 4.56328 59.5482 4.38908C59.1998 4.21488 58.8039 4.11986 58.408 4.11986H58.0596C57.6637 4.11986 57.2678 4.21488 56.9194 4.38908C56.571 4.56328 56.2543 4.81666 56.0167 5.13339C55.605 5.64015 55.3675 6.2736 55.3675 6.92288V8.01559C55.3675 8.66488 55.5892 9.29832 56.0167 9.80509C56.2543 10.1218 56.571 10.3752 56.9194 10.5494C57.2678 10.7236 57.6637 10.8186 58.0596 10.8186ZM57.3153 6.25776C57.347 6.14691 57.3945 6.05189 57.442 5.97271C57.4578 5.95687 57.4578 5.94104 57.4737 5.9252C57.4895 5.90936 57.5053 5.87769 57.5212 5.86186C57.537 5.84602 57.537 5.83018 57.5529 5.81435C57.5687 5.79851 57.5845 5.78267 57.6004 5.76684C57.6162 5.751 57.632 5.73517 57.632 5.71933C57.6479 5.70349 57.6637 5.68766 57.6795 5.67182C57.6954 5.65598 57.6954 5.65598 57.7112 5.64015C57.7429 5.62431 57.7746 5.59264 57.7904 5.5768L57.8062 5.56097C57.8379 5.54513 57.8537 5.52929 57.8854 5.52929C57.9013 5.52929 57.9013 5.51346 57.9171 5.51346C57.9488 5.49762 57.9646 5.49762 57.9963 5.48179C58.0121 5.48179 58.0121 5.48179 58.0279 5.48179C58.0596 5.48179 58.0913 5.46595 58.123 5.46595H58.1388C58.1705 5.46595 58.2021 5.46595 58.2497 5.46595C58.2813 5.46595 58.3288 5.46595 58.3605 5.46595H58.3763C58.408 5.46595 58.4397 5.48179 58.4714 5.48179C58.4714 5.48179 58.4872 5.48179 58.503 5.48179C58.5347 5.48179 58.5505 5.49762 58.5822 5.51346C58.598 5.51346 58.598 5.51346 58.6139 5.52929C58.6456 5.54513 58.6614 5.56097 58.6931 5.56097L58.7089 5.5768C58.7406 5.59264 58.7722 5.62431 58.7881 5.64015C58.8039 5.65598 58.8039 5.65598 58.8198 5.67182C58.8356 5.68766 58.8514 5.70349 58.8673 5.71933C58.8831 5.73517 58.8989 5.751 58.8989 5.76684C58.9148 5.78267 58.9306 5.79851 58.9464 5.81435C58.9623 5.83018 58.9781 5.84602 58.9781 5.86186C58.994 5.87769 59.0098 5.90936 59.0256 5.9252C59.0415 5.94104 59.0415 5.95687 59.0573 5.97271C59.1048 6.06773 59.1523 6.16274 59.184 6.25776C59.3265 6.68534 59.3899 7.12876 59.374 7.58801C59.3899 7.95224 59.3424 8.31648 59.2473 8.68071C59.2473 8.69655 59.2473 8.69655 59.2473 8.71238C59.2315 8.75989 59.2157 8.79156 59.1998 8.82324C59.1682 8.90242 59.1206 8.99744 59.089 9.06078C59.089 9.06078 59.089 9.07662 59.0731 9.07662C59.0573 9.10829 59.0415 9.13996 59.0098 9.1558C59.0098 9.1558 59.0098 9.1558 59.0098 9.17163C58.994 9.20331 58.9623 9.21914 58.9464 9.25082C58.8831 9.31416 58.8039 9.37751 58.7247 9.42502C58.7089 9.44085 58.6931 9.44085 58.6614 9.45669C58.6456 9.45669 58.6297 9.47253 58.6297 9.47253C58.6139 9.47253 58.598 9.48836 58.5822 9.48836C58.5664 9.48836 58.5505 9.5042 58.5189 9.5042C58.503 9.5042 58.4872 9.5042 58.4872 9.52003C58.4555 9.52003 58.4397 9.53587 58.408 9.53587H58.3922C58.3605 9.53587 58.3288 9.53587 58.2813 9.53587C58.2496 9.53587 58.2021 9.53587 58.1705 9.53587H58.1546C58.123 9.53587 58.1071 9.53587 58.0755 9.52003C58.0596 9.52003 58.0438 9.52003 58.0438 9.5042C58.0279 9.5042 58.0121 9.48836 57.9804 9.48836C57.9646 9.48836 57.9488 9.47253 57.9329 9.47253C57.9171 9.47253 57.9013 9.45669 57.8854 9.45669C57.8696 9.45669 57.8537 9.44085 57.8221 9.42502C57.7429 9.37751 57.6637 9.33 57.6004 9.25082C57.5845 9.23498 57.5529 9.20331 57.537 9.17163C57.537 9.17163 57.537 9.17164 57.537 9.1558C57.5212 9.12413 57.5053 9.10829 57.4737 9.07662C57.4737 9.07662 57.4737 9.06078 57.4578 9.06078C57.4103 8.9816 57.3787 8.90242 57.347 8.82324C57.3311 8.79156 57.3153 8.74406 57.2995 8.71238C57.2995 8.71238 57.2995 8.69655 57.2995 8.68071C57.2045 8.33231 57.1569 7.95224 57.1728 7.58801C57.1094 7.14459 57.1728 6.68534 57.3153 6.25776ZM51.9627 9.55171C51.0758 9.55171 50.8066 8.68071 50.7749 8.53818L49.8881 8.74406L49.1438 8.88658C49.3022 9.72591 49.9831 10.9136 51.9151 10.9136C54.4014 10.9136 54.639 9.26665 54.639 8.74406C54.639 7.39797 53.5304 7.04957 52.3111 6.63783C51.5509 6.38445 51.345 6.28944 51.345 5.95687C51.345 5.62431 51.6618 5.43428 52.0577 5.43428C52.5803 5.43428 52.8812 5.71933 53.1029 6.19442L54.544 5.68765C54.2589 4.86417 53.7046 4.08819 51.9943 4.08819C50.284 4.08819 49.5397 5.18089 49.5397 6.00438C49.5397 7.14459 50.0781 7.63552 51.4242 8.09477C52.4219 8.44317 52.8495 8.53818 52.8495 8.9816C52.8336 9.31416 52.5486 9.55171 51.9627 9.55171ZM73.1833 5.56097C73.6742 5.70349 73.7375 6.21025 73.5792 6.55865C73.4208 6.92288 72.7398 7.50883 72.4073 7.76221C71.8847 8.15811 70.3644 9.33 70.3644 9.33V10.7553H75.4478V9.33H72.6448C72.6448 9.33 73.0566 9.04495 74.0067 8.36399C74.9569 7.68303 75.337 6.89121 75.337 6.35278C75.337 5.81435 75.3212 4.11986 72.8982 4.11986C70.4753 4.11986 70.2694 6.28943 70.2694 6.28943L71.853 6.74869C72.0272 5.54513 72.819 5.45011 73.1833 5.56097Z" fill="#777777"/>
    <path d="M20.0366 30.7891C17.2178 30.8683 14.4306 30.0132 12.1502 28.3662C9.14129 26.2125 7.33595 23.2986 6.68666 19.6562H2.28418C3.20268 28.3345 10.9466 35.8251 20.8918 35.2075C30.061 34.6532 36.538 27.3052 37.2823 19.6562H32.8799C32.3889 22.7285 30.8211 25.5157 28.4774 27.5427C26.1336 29.5856 23.1405 30.7258 20.0366 30.7891ZM18.3738 25.9274C18.7222 26.0699 19.1023 26.1491 19.4824 26.1333C19.8624 26.1333 20.2425 26.0383 20.5909 25.8799C20.9076 25.7532 21.1927 25.5315 21.4302 25.2781C21.6519 25.0089 21.8261 24.6922 21.9053 24.3596C22.0478 23.8212 22.0478 23.2669 21.8736 22.7285C21.7945 22.4434 21.6519 22.1742 21.4619 21.9367C21.2719 21.6991 21.0343 21.5091 20.7651 21.3824C20.3692 21.1765 19.9258 21.0815 19.4824 21.0973C19.3874 21.0973 19.2923 21.0973 19.1973 21.0973C19.134 21.0973 19.0865 21.1132 19.0231 21.1132C18.6589 21.1449 18.2946 21.2874 17.9779 21.4933C17.6612 21.6991 17.4078 21.9842 17.2336 22.3009C16.9802 22.7602 16.8852 23.2828 16.9169 23.7895C16.9802 24.7872 17.4395 25.5315 18.3738 25.9274ZM18.8014 21.9842C19.1181 21.8575 19.4824 21.8258 19.8149 21.8892C20.1475 21.9683 20.4642 22.1425 20.6859 22.4118C20.971 22.7918 21.1135 23.2511 21.0818 23.7262C21.0502 24.2013 20.8443 24.6447 20.4959 24.9772C19.7516 25.6424 18.1838 25.4998 17.8512 24.0746C17.8196 23.932 17.8037 23.7895 17.8037 23.7262C17.7721 22.9185 18.1521 22.2534 18.8014 21.9842ZM14.6365 25.3415C14.4464 25.3415 14.2406 25.3098 14.0664 25.2148C13.8922 25.1198 13.7496 24.9931 13.6388 24.8347C13.4329 25.0564 13.227 25.2781 13.0212 25.4998C13.1795 25.6899 13.3854 25.8324 13.6071 25.9274C14.0505 26.1174 14.5256 26.165 15.0007 26.0858C15.7767 25.9591 16.2834 25.4523 16.331 24.708C16.3626 24.4546 16.3151 24.1854 16.1884 23.9637C16.0617 23.742 15.8717 23.552 15.6342 23.4411C15.4283 23.3461 15.2066 23.2669 15.0007 23.1877C14.7632 23.1086 14.5256 22.9977 14.2881 22.8868C14.1772 22.8235 14.098 22.7285 14.0664 22.6176C14.0347 22.5068 14.0347 22.3801 14.0822 22.2692C14.1139 22.1901 14.1614 22.1109 14.2247 22.0475C14.2881 21.9842 14.3673 21.9525 14.4464 21.9208C14.6523 21.8417 14.8899 21.8258 15.1116 21.8892C15.3333 21.9525 15.5233 22.0634 15.6658 22.2376C15.8717 22.0159 16.0776 21.81 16.2834 21.5883C16.2359 21.5408 16.2043 21.5091 16.1568 21.4933C15.7767 21.224 15.3174 21.0815 14.8582 21.0973C14.4623 21.0973 14.0664 21.2082 13.718 21.4141C12.942 21.8892 12.8628 23.2669 13.8447 23.7103C14.0822 23.8212 14.3356 23.8845 14.5731 23.9795C14.779 24.0587 14.9849 24.1538 15.1749 24.2646C15.2382 24.3121 15.3016 24.3755 15.3333 24.4546C15.3808 24.5338 15.3966 24.613 15.3966 24.6922C15.3966 24.7714 15.3808 24.8664 15.3491 24.9456C15.3174 25.0247 15.2541 25.0881 15.1907 25.1514C15.0799 25.2781 14.8582 25.3415 14.6365 25.3415ZM23.1405 25.3731C23.9324 26.1491 24.8667 26.2916 25.8961 25.9749C26.2761 25.8482 26.5929 25.5949 26.8146 25.2781L26.1019 24.7714C26.0703 24.803 26.0544 24.8189 26.0386 24.8505C25.3418 25.6899 24.2333 25.3731 23.774 24.7872C23.6156 24.5813 23.5048 24.3438 23.4414 24.0746C23.3781 23.8212 23.3623 23.552 23.4098 23.2828C23.4573 22.8868 23.6473 22.5226 23.9482 22.2534C24.4233 21.8258 25.3735 21.6199 25.9911 22.3009C26.0069 22.3167 26.0228 22.3326 26.0386 22.3326L26.7037 21.8417C26.5295 21.6199 26.3078 21.4457 26.0544 21.3191C25.5952 21.0974 25.0726 21.034 24.5816 21.1132C24.2649 21.1449 23.964 21.2557 23.6948 21.4141C23.4256 21.5724 23.1881 21.7783 22.998 22.0317C22.6338 22.5385 22.4596 23.1561 22.5071 23.7737C22.4913 24.3755 22.7288 24.9456 23.1405 25.3731ZM21.351 27.1468C21.2402 27.2418 21.1769 27.3843 21.161 27.5269C21.1452 27.6694 21.1769 27.8119 21.2719 27.9386C21.3194 28.002 21.3827 28.0495 21.4619 28.097C21.5411 28.1287 21.6203 28.1603 21.6994 28.1603C21.7786 28.1762 21.8578 28.1603 21.937 28.1287C22.0162 28.097 22.0795 28.0495 22.127 27.9861C22.1429 28.2712 22.0954 28.4295 21.937 28.4929C21.8261 28.5404 21.7153 28.5562 21.6044 28.5246C21.4936 28.4929 21.3827 28.4295 21.3194 28.3504C21.2719 28.3979 21.2244 28.4454 21.1927 28.5087C21.2877 28.6037 21.3986 28.6671 21.5252 28.6988C21.6519 28.7304 21.7786 28.7304 21.9053 28.6988C22.0003 28.6829 22.0954 28.6354 22.1587 28.5721C22.2379 28.5087 22.2854 28.4137 22.3012 28.3187C22.3171 28.2395 22.3329 28.1603 22.3329 28.0811C22.3329 27.7644 22.3329 27.4635 22.3329 27.1468C22.3329 27.1151 22.3329 27.0835 22.3329 27.0676H22.1587C22.1587 27.1151 22.1587 27.1626 22.1429 27.226C22.0478 27.1151 21.9212 27.0518 21.7628 27.036C21.6044 27.0201 21.4619 27.0676 21.351 27.1468ZM22.127 27.5902C22.127 27.6377 22.127 27.7011 22.0954 27.7486C22.0795 27.7961 22.0478 27.8436 22.0162 27.8753C21.9845 27.9069 21.937 27.9386 21.8895 27.9703C21.842 27.9861 21.7945 28.002 21.7311 28.002C21.6361 28.002 21.5411 27.9545 21.4619 27.8911C21.3986 27.8119 21.351 27.7169 21.351 27.6219C21.351 27.5744 21.3511 27.5269 21.3669 27.4794C21.3827 27.4319 21.4144 27.3844 21.4461 27.3527C21.4777 27.321 21.5252 27.2893 21.5728 27.2735C21.6203 27.2577 21.6678 27.2418 21.7153 27.2418C21.7628 27.2418 21.8103 27.2577 21.8578 27.2735C21.9053 27.2893 21.9528 27.321 21.9845 27.3527C22.0162 27.3844 22.0478 27.4319 22.0637 27.4794C22.1112 27.4794 22.127 27.5269 22.127 27.5902ZM16.0776 27.0518H15.9034V28.6671H16.0776V27.9861C16.3626 28.2237 16.6477 28.2395 16.8694 28.0336C16.9644 27.9386 17.0277 27.7961 17.0436 27.6536C17.0594 27.511 17.0119 27.3685 16.9327 27.2577C16.8535 27.1468 16.7427 27.0835 16.616 27.0518C16.521 27.0201 16.426 27.0359 16.331 27.0518C16.2359 27.0676 16.1568 27.131 16.0776 27.2101C16.0776 27.1468 16.0776 27.0993 16.0776 27.0518ZM16.4735 27.1943C16.521 27.1943 16.5843 27.2101 16.6318 27.226C16.6793 27.2418 16.7269 27.2735 16.7585 27.321C16.7902 27.3527 16.8219 27.4002 16.8377 27.4477C16.8535 27.4952 16.8694 27.5427 16.8535 27.6061C16.8535 27.6536 16.8535 27.7011 16.8377 27.7486C16.8219 27.7961 16.7902 27.8436 16.7585 27.8753C16.7269 27.9069 16.6793 27.9386 16.6318 27.9703C16.5843 27.9861 16.5368 28.002 16.4893 28.002C16.4418 28.002 16.3785 27.9861 16.331 27.9703C16.2834 27.9545 16.2359 27.9228 16.2043 27.8911C16.1726 27.8594 16.1409 27.8119 16.1251 27.7644C16.1092 27.7169 16.0934 27.6694 16.0934 27.6061C16.0934 27.5585 16.0934 27.4952 16.1251 27.4477C16.1409 27.4002 16.1726 27.3527 16.2043 27.321C16.2359 27.2893 16.2834 27.2577 16.331 27.226C16.3626 27.2101 16.4101 27.1943 16.4735 27.1943ZM19.039 27.5902C19.039 27.6694 19.0548 27.7486 19.0706 27.8119C19.1023 27.8911 19.1498 27.9545 19.1973 28.002C19.2607 28.0495 19.324 28.097 19.3874 28.1287C19.4665 28.1603 19.5299 28.1603 19.6091 28.1603C19.6882 28.1603 19.7674 28.1603 19.8308 28.1287C19.91 28.097 19.9733 28.0653 20.0208 28.002C20.0683 27.9386 20.1158 27.8911 20.1475 27.8119C20.1792 27.7327 20.195 27.6694 20.1792 27.5902C20.1792 27.511 20.1792 27.4319 20.1475 27.3685C20.1158 27.2893 20.0841 27.226 20.0208 27.1785C19.9733 27.131 19.8941 27.0835 19.8308 27.0518C19.7516 27.0201 19.6882 27.0201 19.6091 27.0201C19.5299 27.0201 19.4507 27.0201 19.3874 27.0518C19.3082 27.0835 19.2448 27.1151 19.1973 27.1785C19.134 27.226 19.1023 27.2893 19.0706 27.3685C19.0548 27.4319 19.039 27.511 19.039 27.5902ZM20.005 27.5902C20.005 27.6377 20.005 27.7011 19.9891 27.7486C19.9733 27.7961 19.9416 27.8436 19.91 27.8753C19.8783 27.9069 19.8308 27.9386 19.7833 27.9703C19.7358 27.9861 19.6882 28.002 19.6249 28.002C19.5774 28.002 19.5299 27.9861 19.4824 27.9703C19.4349 27.9545 19.3874 27.9228 19.3557 27.8911C19.324 27.8594 19.2923 27.8119 19.2765 27.7644C19.2607 27.7169 19.2448 27.6694 19.2448 27.6219C19.2448 27.5744 19.2448 27.511 19.2607 27.4635C19.2765 27.416 19.3082 27.3685 19.3398 27.3368C19.3715 27.3052 19.419 27.2735 19.4665 27.2418C19.514 27.226 19.5616 27.2101 19.6249 27.2101C19.6724 27.2101 19.7358 27.226 19.7833 27.2418C19.8308 27.2577 19.8783 27.2893 19.91 27.3368C19.9416 27.3685 19.9733 27.416 19.9891 27.4635C20.005 27.4952 20.005 27.5427 20.005 27.5902ZM24.3599 27.5902C24.3599 27.6694 24.3758 27.7486 24.4075 27.8119C24.4391 27.8911 24.4866 27.9545 24.5341 28.002C24.5975 28.0495 24.6608 28.097 24.7242 28.1287C24.8034 28.1603 24.8667 28.1603 24.9459 28.1603C25.0251 28.1603 25.1042 28.1445 25.1676 28.1287C25.2468 28.097 25.3101 28.0653 25.3576 28.002C25.4051 27.9545 25.4526 27.8753 25.4843 27.8119C25.516 27.7327 25.516 27.6694 25.516 27.5902C25.516 27.511 25.5002 27.4319 25.4843 27.3685C25.4526 27.3052 25.421 27.226 25.3576 27.1785C25.2943 27.131 25.2309 27.0835 25.1676 27.0518C25.0884 27.0201 25.0251 27.0201 24.9459 27.0201C24.8667 27.0201 24.7875 27.0201 24.7242 27.0518C24.645 27.0835 24.5816 27.1151 24.5341 27.1785C24.4708 27.226 24.4391 27.2893 24.4075 27.3685C24.3758 27.4477 24.3599 27.511 24.3599 27.5902ZM25.326 27.6061C25.326 27.6536 25.326 27.7011 25.3101 27.7486C25.2943 27.7961 25.2626 27.8436 25.2309 27.8753C25.1993 27.9069 25.1518 27.9386 25.1042 27.9545C25.0567 27.9703 25.0092 27.9861 24.9617 27.9861C24.9142 27.9861 24.8509 27.9703 24.8034 27.9545C24.7558 27.9386 24.7083 27.9069 24.6767 27.8594C24.645 27.8278 24.6133 27.7803 24.5975 27.7327C24.5816 27.6852 24.5658 27.6377 24.5658 27.5744C24.5658 27.5269 24.5658 27.4635 24.5975 27.416C24.6292 27.3685 24.645 27.321 24.6767 27.2893C24.7083 27.2577 24.7558 27.226 24.8034 27.1943C24.8509 27.1785 24.8984 27.1626 24.9617 27.1626C25.0092 27.1626 25.0726 27.1785 25.1201 27.1943C25.1676 27.2102 25.2151 27.2418 25.2468 27.2893C25.2784 27.321 25.3101 27.3685 25.326 27.416C25.3101 27.4952 25.326 27.5427 25.326 27.6061ZM13.2746 28.1445C13.3696 28.1762 13.4646 28.1762 13.5596 28.1445C13.6546 28.1128 13.7338 28.0653 13.7971 27.9861C13.7971 28.0495 13.813 28.0811 13.813 28.1128H13.9713C13.9713 27.8911 13.9713 27.6694 13.9713 27.4477C13.9713 27.2101 13.8922 27.0835 13.7338 27.036C13.5279 26.9726 13.1954 27.0201 13.1004 27.1943C13.132 27.226 13.1637 27.2577 13.1954 27.2893C13.5596 27.0993 13.7813 27.1626 13.7813 27.4477C13.7338 27.4477 13.6705 27.4477 13.623 27.4477C13.4963 27.4635 13.3537 27.4794 13.227 27.5269C13.1637 27.5427 13.1004 27.5902 13.0687 27.6536C13.037 27.7169 13.0212 27.7961 13.037 27.8594C13.037 27.9228 13.0687 27.9861 13.1162 28.0336C13.1479 28.097 13.2112 28.1287 13.2746 28.1445ZM13.3696 27.6536C13.4963 27.6377 13.6388 27.6219 13.7655 27.6061C13.7813 27.8753 13.6546 28.0336 13.4171 28.0178C13.3696 28.0178 13.3221 28.002 13.2904 27.9861C13.2587 27.9545 13.227 27.9228 13.227 27.8753C13.227 27.8594 13.227 27.8278 13.227 27.8119C13.227 27.7961 13.2429 27.7644 13.2587 27.7486C13.2746 27.7327 13.2904 27.7169 13.3062 27.7011C13.3221 27.6694 13.3537 27.6536 13.3696 27.6536ZM17.8354 27.4635C17.7087 27.4794 17.5662 27.4952 17.4395 27.5427C17.3761 27.5585 17.3128 27.6061 17.2811 27.6694C17.2495 27.7327 17.2336 27.7961 17.2495 27.8753C17.2495 27.9386 17.2811 28.002 17.3286 28.0495C17.3761 28.097 17.4237 28.1287 17.5028 28.1445C17.5979 28.1762 17.6929 28.1762 17.7879 28.1603C17.8829 28.1287 17.9621 28.0811 18.0254 28.002C18.0413 28.0495 18.0413 28.097 18.0571 28.1287H18.2155C18.2155 27.8911 18.2155 27.6694 18.2155 27.4319C18.2155 27.3527 18.2155 27.2893 18.168 27.2101C18.1205 27.131 18.0729 27.0835 18.0096 27.0518C17.8987 27.0043 17.7721 26.9884 17.6612 27.0201C17.5345 27.036 17.4237 27.0993 17.3445 27.1785L17.4395 27.3052C17.5028 27.2418 17.582 27.2102 17.677 27.1943C17.7721 27.1785 17.8512 27.1943 17.9304 27.226C17.9621 27.2418 17.9938 27.2893 18.0254 27.321C18.0413 27.3685 18.0413 27.4002 18.0413 27.4477C17.9304 27.4635 17.8829 27.4635 17.8354 27.4635ZM17.6137 28.002C17.5662 28.002 17.5345 27.9861 17.5028 27.9545C17.4712 27.9228 17.4553 27.8911 17.4395 27.8436C17.4237 27.7961 17.4395 27.7644 17.4553 27.7327C17.4712 27.7011 17.5187 27.6694 17.5503 27.6694C17.6929 27.6377 17.8354 27.6377 17.9779 27.6061C18.0096 27.8911 17.8512 28.0336 17.6137 28.002ZM23.8532 27.9861C23.7898 28.002 23.7107 28.002 23.6473 27.9861C23.584 27.9703 23.5206 27.9228 23.4889 27.8594C23.4414 27.9069 23.3939 27.9386 23.3464 27.9703C23.4098 28.0653 23.5048 28.1287 23.5998 28.1603C23.7107 28.192 23.8215 28.192 23.9165 28.1603C23.9957 28.1445 24.0749 28.1128 24.1224 28.0495C24.1699 27.9861 24.2016 27.9069 24.2016 27.8278C24.2016 27.6694 24.1066 27.5744 23.9324 27.5269C23.8532 27.511 23.774 27.4952 23.6948 27.4635C23.6473 27.4477 23.584 27.3844 23.5998 27.3527C23.6156 27.321 23.6315 27.3052 23.6473 27.2735C23.6631 27.2577 23.6948 27.2418 23.7265 27.226C23.7898 27.2101 23.8532 27.2101 23.9007 27.226C23.964 27.2418 24.0115 27.2893 24.0432 27.3368C24.0907 27.3052 24.1382 27.2735 24.1857 27.2418C24.0749 26.9884 23.6631 26.9884 23.5048 27.1468C23.4731 27.1785 23.4414 27.226 23.4256 27.2735C23.4098 27.321 23.4098 27.3685 23.4256 27.416C23.4414 27.4635 23.4573 27.511 23.4889 27.5427C23.5206 27.5744 23.5681 27.6061 23.5998 27.6219C23.6948 27.6536 23.8057 27.6852 23.9007 27.7011C23.9799 27.7169 24.0432 27.7644 24.0274 27.8436C24.0115 27.8753 23.9957 27.9069 23.9799 27.9228C23.9165 27.9545 23.8849 27.9703 23.8532 27.9861ZM26.5612 27.321C26.6087 27.2735 26.6562 27.2418 26.7037 27.1943C26.5929 27.0835 26.4345 27.0201 26.2761 27.0201C26.1178 27.0201 25.9594 27.0835 25.8486 27.1943C25.7535 27.321 25.706 27.4794 25.706 27.6377C25.7219 27.7961 25.7852 27.9386 25.9119 28.0495C26.0228 28.1287 26.1653 28.1762 26.3078 28.1603C26.4503 28.1445 26.577 28.0811 26.672 27.9703C26.6404 27.9386 26.5929 27.8911 26.5453 27.8594C26.5137 27.8911 26.482 27.9228 26.4345 27.9545C26.387 27.9703 26.3395 27.9861 26.292 27.9861C26.2445 27.9861 26.1969 27.9861 26.1494 27.9703C26.1019 27.9545 26.0544 27.9228 26.0228 27.8911C25.9436 27.8119 25.9119 27.7169 25.8961 27.6061C25.8961 27.4952 25.9119 27.4002 25.9752 27.3052C26.0069 27.2577 26.0544 27.226 26.1019 27.2101C26.1494 27.1943 26.1969 27.1785 26.2603 27.1785C26.3078 27.1785 26.3711 27.1943 26.4187 27.2101C26.482 27.2577 26.5295 27.2893 26.5612 27.321ZM15.2224 27.2101C15.2858 27.1943 15.3491 27.1943 15.4124 27.2101C15.4758 27.226 15.5233 27.2735 15.5708 27.321C15.6183 27.2735 15.6658 27.226 15.7133 27.1943C15.6025 27.0835 15.46 27.0201 15.3174 27.0201C15.1591 27.0201 15.0165 27.0676 14.9057 27.1785C14.7948 27.2893 14.7473 27.4477 14.7473 27.6061C14.7473 27.7644 14.8107 27.9069 14.9215 28.0336C15.0324 28.1287 15.1749 28.1762 15.3174 28.1762C15.46 28.1762 15.6025 28.1128 15.7133 28.0178L15.6025 27.8753C15.3966 28.0336 15.2066 28.0495 15.0641 27.9069C15.0007 27.8278 14.9532 27.7327 14.9532 27.6377C14.9532 27.5427 14.969 27.4319 15.0324 27.3527C15.0799 27.2735 15.1591 27.226 15.2224 27.2101ZM23.2989 26.45C23.2356 26.4342 23.2039 26.4183 23.1405 26.3867C22.903 26.9884 22.6813 27.5744 22.4438 28.1603L22.6021 28.2237C22.8397 27.6377 23.0614 27.0518 23.2989 26.45ZM20.6701 27.4477C20.6701 27.416 20.6859 27.3685 20.7018 27.3368C20.7176 27.3052 20.7493 27.2735 20.7809 27.2577C20.8126 27.2418 20.8443 27.226 20.8918 27.2101C20.9235 27.1943 20.971 27.1943 21.0027 27.2101C21.0185 27.2101 21.0502 27.2101 21.066 27.2101V27.036C20.9868 27.0201 20.9076 27.0359 20.8285 27.0518C20.7493 27.0835 20.6859 27.131 20.6384 27.1943C20.6226 27.131 20.6226 27.0993 20.6226 27.0676H20.4642V28.1445H20.6384C20.6384 28.0653 20.6384 27.9861 20.6384 27.9228C20.6543 27.7644 20.6543 27.6061 20.6701 27.4477ZM14.3039 28.1287H14.4781V27.0518H14.3039V28.1287ZM18.5005 28.002C18.5005 28.0178 18.5005 28.0336 18.5005 28.0653C18.5005 28.0811 18.5164 28.097 18.5322 28.1128C18.548 28.1287 18.5639 28.1445 18.5797 28.1445C18.5955 28.1445 18.6114 28.1603 18.6272 28.1445C18.7064 28.1445 18.7539 28.097 18.7697 28.002C18.7697 27.9861 18.7697 27.9703 18.7539 27.9545C18.7539 27.9386 18.7381 27.9228 18.7222 27.9069C18.7064 27.8911 18.6906 27.8911 18.6747 27.8753C18.6589 27.8753 18.643 27.8594 18.6272 27.8753C18.6114 27.8753 18.5955 27.8753 18.5797 27.8753C18.5639 27.8753 18.548 27.8911 18.5322 27.9069C18.5164 27.9228 18.5164 27.9386 18.5005 27.9545C18.5005 27.9703 18.5005 27.9861 18.5005 28.002ZM14.5098 26.64C14.5098 26.545 14.4623 26.4975 14.3831 26.4975C14.3673 26.4975 14.3514 26.4975 14.3356 26.4975C14.3197 26.4975 14.3039 26.5134 14.2881 26.5292C14.2722 26.545 14.2722 26.5609 14.2564 26.5767C14.2406 26.5925 14.2406 26.6084 14.2406 26.6242C14.2406 26.64 14.2406 26.6559 14.2406 26.6717C14.2406 26.6876 14.2564 26.7034 14.2722 26.7192C14.2881 26.7351 14.3039 26.7351 14.3197 26.7509C14.3356 26.7509 14.3514 26.7667 14.3673 26.7667C14.3831 26.7667 14.3989 26.7667 14.4148 26.7667C14.4306 26.7667 14.4464 26.7509 14.4623 26.7351C14.4781 26.7192 14.4781 26.7034 14.4939 26.6876C14.5098 26.6717 14.5098 26.6559 14.5098 26.64ZM42.6983 23.647V24.0112H84.5219V23.647H42.6983ZM42.6983 34.3048H84.5219V33.9406H42.6983V34.3048Z" fill="#777777"/>
    <path d="M39.1665 19.4351V16.5371H0.478516V19.4351H39.1665Z" fill="#606060"/>
</svg>
